G04 #@! TF.FileFunction,Copper,L2,Inr,Signal*
%FSLAX46Y46*%
G04 Gerber Fmt 4.6, Leading zero omitted, Abs format (unit mm)*
G04 Created by KiCad (PCBNEW 4.0.2-stable) date 5/20/2016 6:39:27 AM*
%MOMM*%
G01*
G04 APERTURE LIST*
%ADD10C,0.100000*%
%ADD11R,1.700000X1.700000*%
%ADD12C,1.600000*%
%ADD13R,1.501140X2.199640*%
%ADD14O,1.501140X2.199640*%
%ADD15R,1.300000X1.300000*%
%ADD16C,1.300000*%
%ADD17C,0.600000*%
G04 APERTURE END LIST*
D10*
D11*
X130399000Y-97937000D03*
D12*
X132939000Y-97937000D03*
X135479000Y-97937000D03*
X138019000Y-97937000D03*
X140559000Y-97937000D03*
X143099000Y-97937000D03*
X145639000Y-97937000D03*
X148179000Y-97937000D03*
X158339000Y-97937000D03*
X160879000Y-97937000D03*
X163419000Y-97937000D03*
X165959000Y-97937000D03*
X168499000Y-97937000D03*
X171039000Y-97937000D03*
X173579000Y-97937000D03*
X176119000Y-97937000D03*
X178659000Y-97937000D03*
X178659000Y-82697000D03*
X176119000Y-82697000D03*
X173579000Y-82697000D03*
X171039000Y-82697000D03*
X168499000Y-82697000D03*
X165959000Y-82697000D03*
X163419000Y-82697000D03*
X160879000Y-82697000D03*
X158339000Y-82697000D03*
X148179000Y-82697000D03*
X145639000Y-82697000D03*
X143099000Y-82697000D03*
X140559000Y-82697000D03*
X138019000Y-82697000D03*
X135479000Y-82697000D03*
X132939000Y-82697000D03*
X130399000Y-82697000D03*
D13*
X150266400Y-86512400D03*
D14*
X147726400Y-86512400D03*
X145186400Y-86512400D03*
X142646400Y-86512400D03*
X140106400Y-86512400D03*
X137566400Y-86512400D03*
X135026400Y-86512400D03*
X132486400Y-86512400D03*
X132486400Y-94132400D03*
X135026400Y-94132400D03*
X137566400Y-94132400D03*
X140106400Y-94132400D03*
X142646400Y-94132400D03*
X145186400Y-94132400D03*
X147726400Y-94132400D03*
X150266400Y-94132400D03*
D13*
X173863000Y-86487000D03*
D14*
X171323000Y-86487000D03*
X168783000Y-86487000D03*
X166243000Y-86487000D03*
X163703000Y-86487000D03*
X161163000Y-86487000D03*
X158623000Y-86487000D03*
X158623000Y-94107000D03*
X161163000Y-94107000D03*
X163703000Y-94107000D03*
X166243000Y-94107000D03*
X168783000Y-94107000D03*
X171323000Y-94107000D03*
X173863000Y-94107000D03*
D15*
X177927000Y-94107000D03*
D16*
X177927000Y-91607000D03*
D15*
X154305000Y-94107000D03*
D16*
X154305000Y-91607000D03*
D17*
X155829000Y-95250000D03*
D10*
G36*
X132283902Y-81714723D02*
X131957867Y-82040189D01*
X131781201Y-82465649D01*
X131780799Y-82926330D01*
X131956723Y-83352098D01*
X132282189Y-83678133D01*
X132707649Y-83854799D01*
X133168330Y-83855201D01*
X133594098Y-83679277D01*
X133920133Y-83353811D01*
X134096799Y-82928351D01*
X134097201Y-82467670D01*
X133921277Y-82041902D01*
X133595811Y-81715867D01*
X133588906Y-81713000D01*
X134828072Y-81713000D01*
X134823902Y-81714723D01*
X134497867Y-82040189D01*
X134321201Y-82465649D01*
X134320799Y-82926330D01*
X134496723Y-83352098D01*
X134822189Y-83678133D01*
X135247649Y-83854799D01*
X135708330Y-83855201D01*
X136134098Y-83679277D01*
X136460133Y-83353811D01*
X136636799Y-82928351D01*
X136637201Y-82467670D01*
X136461277Y-82041902D01*
X136135811Y-81715867D01*
X136128906Y-81713000D01*
X137368072Y-81713000D01*
X137363902Y-81714723D01*
X137037867Y-82040189D01*
X136861201Y-82465649D01*
X136860799Y-82926330D01*
X137036723Y-83352098D01*
X137362189Y-83678133D01*
X137787649Y-83854799D01*
X138248330Y-83855201D01*
X138674098Y-83679277D01*
X139000133Y-83353811D01*
X139176799Y-82928351D01*
X139177201Y-82467670D01*
X139001277Y-82041902D01*
X138675811Y-81715867D01*
X138668906Y-81713000D01*
X139908072Y-81713000D01*
X139903902Y-81714723D01*
X139577867Y-82040189D01*
X139401201Y-82465649D01*
X139400799Y-82926330D01*
X139576723Y-83352098D01*
X139902189Y-83678133D01*
X140327649Y-83854799D01*
X140788330Y-83855201D01*
X141214098Y-83679277D01*
X141540133Y-83353811D01*
X141716799Y-82928351D01*
X141717201Y-82467670D01*
X141541277Y-82041902D01*
X141215811Y-81715867D01*
X141208906Y-81713000D01*
X142448072Y-81713000D01*
X142443902Y-81714723D01*
X142117867Y-82040189D01*
X141941201Y-82465649D01*
X141940799Y-82926330D01*
X142116723Y-83352098D01*
X142442189Y-83678133D01*
X142867649Y-83854799D01*
X143328330Y-83855201D01*
X143754098Y-83679277D01*
X144080133Y-83353811D01*
X144256799Y-82928351D01*
X144257201Y-82467670D01*
X144081277Y-82041902D01*
X143755811Y-81715867D01*
X143748906Y-81713000D01*
X144988072Y-81713000D01*
X144983902Y-81714723D01*
X144657867Y-82040189D01*
X144481201Y-82465649D01*
X144480799Y-82926330D01*
X144656723Y-83352098D01*
X144982189Y-83678133D01*
X145407649Y-83854799D01*
X145868330Y-83855201D01*
X146294098Y-83679277D01*
X146620133Y-83353811D01*
X146796799Y-82928351D01*
X146797201Y-82467670D01*
X146621277Y-82041902D01*
X146295811Y-81715867D01*
X146288906Y-81713000D01*
X147528072Y-81713000D01*
X147523902Y-81714723D01*
X147197867Y-82040189D01*
X147021201Y-82465649D01*
X147020799Y-82926330D01*
X147196723Y-83352098D01*
X147522189Y-83678133D01*
X147947649Y-83854799D01*
X148408330Y-83855201D01*
X148834098Y-83679277D01*
X149160133Y-83353811D01*
X149336799Y-82928351D01*
X149337201Y-82467670D01*
X149161277Y-82041902D01*
X148835811Y-81715867D01*
X148828906Y-81713000D01*
X157688072Y-81713000D01*
X157683902Y-81714723D01*
X157357867Y-82040189D01*
X157181201Y-82465649D01*
X157180799Y-82926330D01*
X157356723Y-83352098D01*
X157682189Y-83678133D01*
X158107649Y-83854799D01*
X158568330Y-83855201D01*
X158994098Y-83679277D01*
X159320133Y-83353811D01*
X159496799Y-82928351D01*
X159497201Y-82467670D01*
X159321277Y-82041902D01*
X158995811Y-81715867D01*
X158988906Y-81713000D01*
X160228072Y-81713000D01*
X160223902Y-81714723D01*
X159897867Y-82040189D01*
X159721201Y-82465649D01*
X159720799Y-82926330D01*
X159896723Y-83352098D01*
X160222189Y-83678133D01*
X160647649Y-83854799D01*
X161108330Y-83855201D01*
X161534098Y-83679277D01*
X161860133Y-83353811D01*
X162036799Y-82928351D01*
X162037201Y-82467670D01*
X161861277Y-82041902D01*
X161535811Y-81715867D01*
X161528906Y-81713000D01*
X162768072Y-81713000D01*
X162763902Y-81714723D01*
X162437867Y-82040189D01*
X162261201Y-82465649D01*
X162260799Y-82926330D01*
X162436723Y-83352098D01*
X162762189Y-83678133D01*
X163187649Y-83854799D01*
X163648330Y-83855201D01*
X164074098Y-83679277D01*
X164400133Y-83353811D01*
X164576799Y-82928351D01*
X164577201Y-82467670D01*
X164401277Y-82041902D01*
X164075811Y-81715867D01*
X164068906Y-81713000D01*
X165308072Y-81713000D01*
X165303902Y-81714723D01*
X164977867Y-82040189D01*
X164801201Y-82465649D01*
X164800799Y-82926330D01*
X164976723Y-83352098D01*
X165302189Y-83678133D01*
X165727649Y-83854799D01*
X166188330Y-83855201D01*
X166614098Y-83679277D01*
X166940133Y-83353811D01*
X167116799Y-82928351D01*
X167117201Y-82467670D01*
X166941277Y-82041902D01*
X166615811Y-81715867D01*
X166608906Y-81713000D01*
X167848072Y-81713000D01*
X167843902Y-81714723D01*
X167517867Y-82040189D01*
X167341201Y-82465649D01*
X167340799Y-82926330D01*
X167516723Y-83352098D01*
X167842189Y-83678133D01*
X168267649Y-83854799D01*
X168728330Y-83855201D01*
X169154098Y-83679277D01*
X169480133Y-83353811D01*
X169656799Y-82928351D01*
X169657201Y-82467670D01*
X169481277Y-82041902D01*
X169155811Y-81715867D01*
X169148906Y-81713000D01*
X170388072Y-81713000D01*
X170383902Y-81714723D01*
X170057867Y-82040189D01*
X169881201Y-82465649D01*
X169880799Y-82926330D01*
X170056723Y-83352098D01*
X170382189Y-83678133D01*
X170807649Y-83854799D01*
X171268330Y-83855201D01*
X171694098Y-83679277D01*
X172020133Y-83353811D01*
X172196799Y-82928351D01*
X172197201Y-82467670D01*
X172021277Y-82041902D01*
X171695811Y-81715867D01*
X171688906Y-81713000D01*
X172928072Y-81713000D01*
X172923902Y-81714723D01*
X172597867Y-82040189D01*
X172421201Y-82465649D01*
X172420799Y-82926330D01*
X172596723Y-83352098D01*
X172922189Y-83678133D01*
X173347649Y-83854799D01*
X173808330Y-83855201D01*
X174234098Y-83679277D01*
X174560133Y-83353811D01*
X174736799Y-82928351D01*
X174737201Y-82467670D01*
X174561277Y-82041902D01*
X174235811Y-81715867D01*
X174228906Y-81713000D01*
X175468072Y-81713000D01*
X175463902Y-81714723D01*
X175137867Y-82040189D01*
X174961201Y-82465649D01*
X174960799Y-82926330D01*
X175136723Y-83352098D01*
X175462189Y-83678133D01*
X175887649Y-83854799D01*
X176348330Y-83855201D01*
X176700289Y-83709774D01*
X177934725Y-83709774D01*
X178019070Y-83924852D01*
X178537661Y-84076278D01*
X179074724Y-84017721D01*
X179298930Y-83924852D01*
X179383275Y-83709774D01*
X178659000Y-82985500D01*
X177934725Y-83709774D01*
X176700289Y-83709774D01*
X176774098Y-83679277D01*
X177100133Y-83353811D01*
X177276799Y-82928351D01*
X177277106Y-82575661D01*
X177279722Y-82575661D01*
X177338279Y-83112724D01*
X177431148Y-83336930D01*
X177646226Y-83421275D01*
X178370500Y-82697000D01*
X177646226Y-81972725D01*
X177431148Y-82057070D01*
X177279722Y-82575661D01*
X177277106Y-82575661D01*
X177277201Y-82467670D01*
X177101277Y-82041902D01*
X176775811Y-81715867D01*
X176768906Y-81713000D01*
X177963499Y-81713000D01*
X178659000Y-82408500D01*
X179354501Y-81713000D01*
X179653000Y-81713000D01*
X179653000Y-81991499D01*
X178947500Y-82697000D01*
X179653000Y-83402501D01*
X179653000Y-97310274D01*
X179641277Y-97281902D01*
X179315811Y-96955867D01*
X178890351Y-96779201D01*
X178429670Y-96778799D01*
X178003902Y-96954723D01*
X177677867Y-97280189D01*
X177501201Y-97705649D01*
X177500799Y-98166330D01*
X177676723Y-98592098D01*
X177965121Y-98881000D01*
X176812442Y-98881000D01*
X177100133Y-98593811D01*
X177276799Y-98168351D01*
X177277201Y-97707670D01*
X177101277Y-97281902D01*
X176775811Y-96955867D01*
X176350351Y-96779201D01*
X175889670Y-96778799D01*
X175463902Y-96954723D01*
X175137867Y-97280189D01*
X174961201Y-97705649D01*
X174960799Y-98166330D01*
X175136723Y-98592098D01*
X175425121Y-98881000D01*
X174272442Y-98881000D01*
X174560133Y-98593811D01*
X174736799Y-98168351D01*
X174737201Y-97707670D01*
X174561277Y-97281902D01*
X174235811Y-96955867D01*
X173810351Y-96779201D01*
X173349670Y-96778799D01*
X172923902Y-96954723D01*
X172597867Y-97280189D01*
X172421201Y-97705649D01*
X172420799Y-98166330D01*
X172596723Y-98592098D01*
X172885121Y-98881000D01*
X171732442Y-98881000D01*
X172020133Y-98593811D01*
X172196799Y-98168351D01*
X172197201Y-97707670D01*
X172021277Y-97281902D01*
X171695811Y-96955867D01*
X171270351Y-96779201D01*
X170809670Y-96778799D01*
X170383902Y-96954723D01*
X170057867Y-97280189D01*
X169881201Y-97705649D01*
X169880799Y-98166330D01*
X170056723Y-98592098D01*
X170345121Y-98881000D01*
X169192442Y-98881000D01*
X169480133Y-98593811D01*
X169656799Y-98168351D01*
X169657201Y-97707670D01*
X169481277Y-97281902D01*
X169155811Y-96955867D01*
X168730351Y-96779201D01*
X168269670Y-96778799D01*
X167843902Y-96954723D01*
X167517867Y-97280189D01*
X167341201Y-97705649D01*
X167340799Y-98166330D01*
X167516723Y-98592098D01*
X167805121Y-98881000D01*
X166652442Y-98881000D01*
X166940133Y-98593811D01*
X167116799Y-98168351D01*
X167117201Y-97707670D01*
X166941277Y-97281902D01*
X166615811Y-96955867D01*
X166190351Y-96779201D01*
X165729670Y-96778799D01*
X165303902Y-96954723D01*
X164977867Y-97280189D01*
X164801201Y-97705649D01*
X164800799Y-98166330D01*
X164976723Y-98592098D01*
X165265121Y-98881000D01*
X164112442Y-98881000D01*
X164400133Y-98593811D01*
X164576799Y-98168351D01*
X164577201Y-97707670D01*
X164401277Y-97281902D01*
X164075811Y-96955867D01*
X163650351Y-96779201D01*
X163189670Y-96778799D01*
X162763902Y-96954723D01*
X162437867Y-97280189D01*
X162261201Y-97705649D01*
X162260799Y-98166330D01*
X162436723Y-98592098D01*
X162725121Y-98881000D01*
X161572442Y-98881000D01*
X161860133Y-98593811D01*
X162036799Y-98168351D01*
X162037201Y-97707670D01*
X161861277Y-97281902D01*
X161535811Y-96955867D01*
X161110351Y-96779201D01*
X160649670Y-96778799D01*
X160223902Y-96954723D01*
X159897867Y-97280189D01*
X159721201Y-97705649D01*
X159720799Y-98166330D01*
X159896723Y-98592098D01*
X160185121Y-98881000D01*
X159032442Y-98881000D01*
X159320133Y-98593811D01*
X159496799Y-98168351D01*
X159497201Y-97707670D01*
X159321277Y-97281902D01*
X158995811Y-96955867D01*
X158570351Y-96779201D01*
X158109670Y-96778799D01*
X157683902Y-96954723D01*
X157357867Y-97280189D01*
X157181201Y-97705649D01*
X157180799Y-98166330D01*
X157356723Y-98592098D01*
X157645121Y-98881000D01*
X148872442Y-98881000D01*
X149160133Y-98593811D01*
X149336799Y-98168351D01*
X149337201Y-97707670D01*
X149161277Y-97281902D01*
X148835811Y-96955867D01*
X148410351Y-96779201D01*
X147949670Y-96778799D01*
X147523902Y-96954723D01*
X147197867Y-97280189D01*
X147021201Y-97705649D01*
X147020799Y-98166330D01*
X147196723Y-98592098D01*
X147485121Y-98881000D01*
X146332442Y-98881000D01*
X146620133Y-98593811D01*
X146796799Y-98168351D01*
X146797201Y-97707670D01*
X146621277Y-97281902D01*
X146295811Y-96955867D01*
X145870351Y-96779201D01*
X145409670Y-96778799D01*
X144983902Y-96954723D01*
X144657867Y-97280189D01*
X144481201Y-97705649D01*
X144480799Y-98166330D01*
X144656723Y-98592098D01*
X144945121Y-98881000D01*
X143792442Y-98881000D01*
X144080133Y-98593811D01*
X144256799Y-98168351D01*
X144257201Y-97707670D01*
X144081277Y-97281902D01*
X143755811Y-96955867D01*
X143330351Y-96779201D01*
X142869670Y-96778799D01*
X142443902Y-96954723D01*
X142117867Y-97280189D01*
X141941201Y-97705649D01*
X141940799Y-98166330D01*
X142116723Y-98592098D01*
X142405121Y-98881000D01*
X141252442Y-98881000D01*
X141540133Y-98593811D01*
X141716799Y-98168351D01*
X141717201Y-97707670D01*
X141541277Y-97281902D01*
X141215811Y-96955867D01*
X140790351Y-96779201D01*
X140329670Y-96778799D01*
X139903902Y-96954723D01*
X139577867Y-97280189D01*
X139401201Y-97705649D01*
X139400799Y-98166330D01*
X139576723Y-98592098D01*
X139865121Y-98881000D01*
X138712442Y-98881000D01*
X139000133Y-98593811D01*
X139176799Y-98168351D01*
X139177201Y-97707670D01*
X139001277Y-97281902D01*
X138675811Y-96955867D01*
X138250351Y-96779201D01*
X137789670Y-96778799D01*
X137363902Y-96954723D01*
X137037867Y-97280189D01*
X136861201Y-97705649D01*
X136860799Y-98166330D01*
X137036723Y-98592098D01*
X137325121Y-98881000D01*
X136172442Y-98881000D01*
X136460133Y-98593811D01*
X136636799Y-98168351D01*
X136637201Y-97707670D01*
X136461277Y-97281902D01*
X136135811Y-96955867D01*
X135710351Y-96779201D01*
X135249670Y-96778799D01*
X134823902Y-96954723D01*
X134497867Y-97280189D01*
X134321201Y-97705649D01*
X134320799Y-98166330D01*
X134496723Y-98592098D01*
X134785121Y-98881000D01*
X133632442Y-98881000D01*
X133920133Y-98593811D01*
X134096799Y-98168351D01*
X134097201Y-97707670D01*
X133921277Y-97281902D01*
X133595811Y-96955867D01*
X133170351Y-96779201D01*
X132709670Y-96778799D01*
X132283902Y-96954723D01*
X131957867Y-97280189D01*
X131781201Y-97705649D01*
X131781177Y-97732998D01*
X131667502Y-97732998D01*
X131807000Y-97593500D01*
X131807000Y-96976007D01*
X131722049Y-96770918D01*
X131565082Y-96613950D01*
X131359993Y-96529000D01*
X130742500Y-96529000D01*
X130603000Y-96668500D01*
X130603000Y-97733000D01*
X130623000Y-97733000D01*
X130623000Y-98141000D01*
X130603000Y-98141000D01*
X130603000Y-98161000D01*
X130195000Y-98161000D01*
X130195000Y-98141000D01*
X130175000Y-98141000D01*
X130175000Y-97733000D01*
X130195000Y-97733000D01*
X130195000Y-96668500D01*
X130055500Y-96529000D01*
X129465000Y-96529000D01*
X129465000Y-93754590D01*
X131377830Y-93754590D01*
X131377830Y-94510210D01*
X131462215Y-94934441D01*
X131702523Y-95294087D01*
X132062169Y-95534395D01*
X132486400Y-95618780D01*
X132910631Y-95534395D01*
X133270277Y-95294087D01*
X133510585Y-94934441D01*
X133594970Y-94510210D01*
X133594970Y-93754590D01*
X133917830Y-93754590D01*
X133917830Y-94510210D01*
X134002215Y-94934441D01*
X134242523Y-95294087D01*
X134602169Y-95534395D01*
X135026400Y-95618780D01*
X135450631Y-95534395D01*
X135810277Y-95294087D01*
X136050585Y-94934441D01*
X136134970Y-94510210D01*
X136134970Y-93754590D01*
X136457830Y-93754590D01*
X136457830Y-94510210D01*
X136542215Y-94934441D01*
X136782523Y-95294087D01*
X137142169Y-95534395D01*
X137566400Y-95618780D01*
X137990631Y-95534395D01*
X138350277Y-95294087D01*
X138590585Y-94934441D01*
X138674970Y-94510210D01*
X138674970Y-93754590D01*
X138997830Y-93754590D01*
X138997830Y-94510210D01*
X139082215Y-94934441D01*
X139322523Y-95294087D01*
X139682169Y-95534395D01*
X140106400Y-95618780D01*
X140530631Y-95534395D01*
X140890277Y-95294087D01*
X141130585Y-94934441D01*
X141214970Y-94510210D01*
X141214970Y-93754590D01*
X141537830Y-93754590D01*
X141537830Y-94510210D01*
X141622215Y-94934441D01*
X141862523Y-95294087D01*
X142222169Y-95534395D01*
X142646400Y-95618780D01*
X143070631Y-95534395D01*
X143430277Y-95294087D01*
X143670585Y-94934441D01*
X143754970Y-94510210D01*
X143754970Y-93754590D01*
X144077830Y-93754590D01*
X144077830Y-94510210D01*
X144162215Y-94934441D01*
X144402523Y-95294087D01*
X144762169Y-95534395D01*
X145186400Y-95618780D01*
X145610631Y-95534395D01*
X145970277Y-95294087D01*
X146210585Y-94934441D01*
X146294970Y-94510210D01*
X146294970Y-93754590D01*
X146617830Y-93754590D01*
X146617830Y-94510210D01*
X146702215Y-94934441D01*
X146942523Y-95294087D01*
X147302169Y-95534395D01*
X147726400Y-95618780D01*
X148150631Y-95534395D01*
X148510277Y-95294087D01*
X148750585Y-94934441D01*
X148828118Y-94544655D01*
X148940096Y-94544655D01*
X149065166Y-95047414D01*
X149373113Y-95464040D01*
X149862709Y-95726395D01*
X150062400Y-95632784D01*
X150062400Y-94336400D01*
X150470400Y-94336400D01*
X150470400Y-95632784D01*
X150670091Y-95726395D01*
X151159687Y-95464040D01*
X151467634Y-95047414D01*
X151592704Y-94544655D01*
X151526708Y-94450500D01*
X153097000Y-94450500D01*
X153097000Y-94867993D01*
X153181950Y-95073082D01*
X153338918Y-95230049D01*
X153544007Y-95315000D01*
X153961500Y-95315000D01*
X154101000Y-95175500D01*
X154101000Y-94311000D01*
X154509000Y-94311000D01*
X154509000Y-95175500D01*
X154648500Y-95315000D01*
X155065993Y-95315000D01*
X155170981Y-95271512D01*
X155170886Y-95380310D01*
X155270849Y-95622240D01*
X155455786Y-95807500D01*
X155697541Y-95907886D01*
X155959310Y-95908114D01*
X156201240Y-95808151D01*
X156386500Y-95623214D01*
X156486886Y-95381459D01*
X156487114Y-95119690D01*
X156387151Y-94877760D01*
X156202214Y-94692500D01*
X155960459Y-94592114D01*
X155698690Y-94591886D01*
X155513000Y-94668611D01*
X155513000Y-94450500D01*
X155373500Y-94311000D01*
X154509000Y-94311000D01*
X154101000Y-94311000D01*
X153236500Y-94311000D01*
X153097000Y-94450500D01*
X151526708Y-94450500D01*
X151446731Y-94336400D01*
X150470400Y-94336400D01*
X150062400Y-94336400D01*
X149086069Y-94336400D01*
X148940096Y-94544655D01*
X148828118Y-94544655D01*
X148834970Y-94510210D01*
X148834970Y-93754590D01*
X148828119Y-93720145D01*
X148940096Y-93720145D01*
X149086069Y-93928400D01*
X150062400Y-93928400D01*
X150062400Y-92632016D01*
X150470400Y-92632016D01*
X150470400Y-93928400D01*
X151446731Y-93928400D01*
X151592704Y-93720145D01*
X151499631Y-93346007D01*
X153097000Y-93346007D01*
X153097000Y-93763500D01*
X153236500Y-93903000D01*
X154101000Y-93903000D01*
X154101000Y-93038500D01*
X154509000Y-93038500D01*
X154509000Y-93903000D01*
X155373500Y-93903000D01*
X155513000Y-93763500D01*
X155513000Y-93729190D01*
X157514430Y-93729190D01*
X157514430Y-94484810D01*
X157598815Y-94909041D01*
X157839123Y-95268687D01*
X158198769Y-95508995D01*
X158623000Y-95593380D01*
X159047231Y-95508995D01*
X159406877Y-95268687D01*
X159647185Y-94909041D01*
X159731570Y-94484810D01*
X159731570Y-93729190D01*
X160054430Y-93729190D01*
X160054430Y-94484810D01*
X160138815Y-94909041D01*
X160379123Y-95268687D01*
X160738769Y-95508995D01*
X161163000Y-95593380D01*
X161587231Y-95508995D01*
X161946877Y-95268687D01*
X162187185Y-94909041D01*
X162271570Y-94484810D01*
X162271570Y-93729190D01*
X162594430Y-93729190D01*
X162594430Y-94484810D01*
X162678815Y-94909041D01*
X162919123Y-95268687D01*
X163278769Y-95508995D01*
X163703000Y-95593380D01*
X164127231Y-95508995D01*
X164486877Y-95268687D01*
X164727185Y-94909041D01*
X164811570Y-94484810D01*
X164811570Y-93729190D01*
X165134430Y-93729190D01*
X165134430Y-94484810D01*
X165218815Y-94909041D01*
X165459123Y-95268687D01*
X165818769Y-95508995D01*
X166243000Y-95593380D01*
X166667231Y-95508995D01*
X167026877Y-95268687D01*
X167267185Y-94909041D01*
X167351570Y-94484810D01*
X167351570Y-93729190D01*
X167674430Y-93729190D01*
X167674430Y-94484810D01*
X167758815Y-94909041D01*
X167999123Y-95268687D01*
X168358769Y-95508995D01*
X168783000Y-95593380D01*
X169207231Y-95508995D01*
X169566877Y-95268687D01*
X169807185Y-94909041D01*
X169891570Y-94484810D01*
X169891570Y-93729190D01*
X170214430Y-93729190D01*
X170214430Y-94484810D01*
X170298815Y-94909041D01*
X170539123Y-95268687D01*
X170898769Y-95508995D01*
X171323000Y-95593380D01*
X171747231Y-95508995D01*
X172106877Y-95268687D01*
X172347185Y-94909041D01*
X172424718Y-94519255D01*
X172536696Y-94519255D01*
X172661766Y-95022014D01*
X172969713Y-95438640D01*
X173459309Y-95700995D01*
X173659000Y-95607384D01*
X173659000Y-94311000D01*
X174067000Y-94311000D01*
X174067000Y-95607384D01*
X174266691Y-95700995D01*
X174756287Y-95438640D01*
X175064234Y-95022014D01*
X175189304Y-94519255D01*
X175043331Y-94311000D01*
X174067000Y-94311000D01*
X173659000Y-94311000D01*
X172682669Y-94311000D01*
X172536696Y-94519255D01*
X172424718Y-94519255D01*
X172431570Y-94484810D01*
X172431570Y-93729190D01*
X172424719Y-93694745D01*
X172536696Y-93694745D01*
X172682669Y-93903000D01*
X173659000Y-93903000D01*
X173659000Y-92606616D01*
X174067000Y-92606616D01*
X174067000Y-93903000D01*
X175043331Y-93903000D01*
X175189304Y-93694745D01*
X175130161Y-93457000D01*
X176911987Y-93457000D01*
X176911987Y-94757000D01*
X176936950Y-94889667D01*
X177015356Y-95011513D01*
X177134989Y-95093255D01*
X177277000Y-95122013D01*
X178577000Y-95122013D01*
X178709667Y-95097050D01*
X178831513Y-95018644D01*
X178913255Y-94899011D01*
X178942013Y-94757000D01*
X178942013Y-93457000D01*
X178917050Y-93324333D01*
X178838644Y-93202487D01*
X178719011Y-93120745D01*
X178577000Y-93091987D01*
X177277000Y-93091987D01*
X177144333Y-93116950D01*
X177022487Y-93195356D01*
X176940745Y-93314989D01*
X176911987Y-93457000D01*
X175130161Y-93457000D01*
X175064234Y-93191986D01*
X174756287Y-92775360D01*
X174266691Y-92513005D01*
X174067000Y-92606616D01*
X173659000Y-92606616D01*
X173459309Y-92513005D01*
X172969713Y-92775360D01*
X172661766Y-93191986D01*
X172536696Y-93694745D01*
X172424719Y-93694745D01*
X172347185Y-93304959D01*
X172106877Y-92945313D01*
X171747231Y-92705005D01*
X171323000Y-92620620D01*
X170898769Y-92705005D01*
X170539123Y-92945313D01*
X170298815Y-93304959D01*
X170214430Y-93729190D01*
X169891570Y-93729190D01*
X169807185Y-93304959D01*
X169566877Y-92945313D01*
X169207231Y-92705005D01*
X168783000Y-92620620D01*
X168358769Y-92705005D01*
X167999123Y-92945313D01*
X167758815Y-93304959D01*
X167674430Y-93729190D01*
X167351570Y-93729190D01*
X167267185Y-93304959D01*
X167026877Y-92945313D01*
X166667231Y-92705005D01*
X166243000Y-92620620D01*
X165818769Y-92705005D01*
X165459123Y-92945313D01*
X165218815Y-93304959D01*
X165134430Y-93729190D01*
X164811570Y-93729190D01*
X164727185Y-93304959D01*
X164486877Y-92945313D01*
X164127231Y-92705005D01*
X163703000Y-92620620D01*
X163278769Y-92705005D01*
X162919123Y-92945313D01*
X162678815Y-93304959D01*
X162594430Y-93729190D01*
X162271570Y-93729190D01*
X162187185Y-93304959D01*
X161946877Y-92945313D01*
X161587231Y-92705005D01*
X161163000Y-92620620D01*
X160738769Y-92705005D01*
X160379123Y-92945313D01*
X160138815Y-93304959D01*
X160054430Y-93729190D01*
X159731570Y-93729190D01*
X159647185Y-93304959D01*
X159406877Y-92945313D01*
X159047231Y-92705005D01*
X158623000Y-92620620D01*
X158198769Y-92705005D01*
X157839123Y-92945313D01*
X157598815Y-93304959D01*
X157514430Y-93729190D01*
X155513000Y-93729190D01*
X155513000Y-93346007D01*
X155428050Y-93140918D01*
X155271082Y-92983951D01*
X155065993Y-92899000D01*
X154648500Y-92899000D01*
X154509000Y-93038500D01*
X154101000Y-93038500D01*
X153961500Y-92899000D01*
X153544007Y-92899000D01*
X153338918Y-92983951D01*
X153181950Y-93140918D01*
X153097000Y-93346007D01*
X151499631Y-93346007D01*
X151467634Y-93217386D01*
X151159687Y-92800760D01*
X150670091Y-92538405D01*
X150470400Y-92632016D01*
X150062400Y-92632016D01*
X149862709Y-92538405D01*
X149373113Y-92800760D01*
X149065166Y-93217386D01*
X148940096Y-93720145D01*
X148828119Y-93720145D01*
X148750585Y-93330359D01*
X148510277Y-92970713D01*
X148150631Y-92730405D01*
X147726400Y-92646020D01*
X147302169Y-92730405D01*
X146942523Y-92970713D01*
X146702215Y-93330359D01*
X146617830Y-93754590D01*
X146294970Y-93754590D01*
X146210585Y-93330359D01*
X145970277Y-92970713D01*
X145610631Y-92730405D01*
X145186400Y-92646020D01*
X144762169Y-92730405D01*
X144402523Y-92970713D01*
X144162215Y-93330359D01*
X144077830Y-93754590D01*
X143754970Y-93754590D01*
X143670585Y-93330359D01*
X143430277Y-92970713D01*
X143070631Y-92730405D01*
X142646400Y-92646020D01*
X142222169Y-92730405D01*
X141862523Y-92970713D01*
X141622215Y-93330359D01*
X141537830Y-93754590D01*
X141214970Y-93754590D01*
X141130585Y-93330359D01*
X140890277Y-92970713D01*
X140530631Y-92730405D01*
X140106400Y-92646020D01*
X139682169Y-92730405D01*
X139322523Y-92970713D01*
X139082215Y-93330359D01*
X138997830Y-93754590D01*
X138674970Y-93754590D01*
X138590585Y-93330359D01*
X138350277Y-92970713D01*
X137990631Y-92730405D01*
X137566400Y-92646020D01*
X137142169Y-92730405D01*
X136782523Y-92970713D01*
X136542215Y-93330359D01*
X136457830Y-93754590D01*
X136134970Y-93754590D01*
X136050585Y-93330359D01*
X135810277Y-92970713D01*
X135450631Y-92730405D01*
X135026400Y-92646020D01*
X134602169Y-92730405D01*
X134242523Y-92970713D01*
X134002215Y-93330359D01*
X133917830Y-93754590D01*
X133594970Y-93754590D01*
X133510585Y-93330359D01*
X133270277Y-92970713D01*
X132910631Y-92730405D01*
X132486400Y-92646020D01*
X132062169Y-92730405D01*
X131702523Y-92970713D01*
X131462215Y-93330359D01*
X131377830Y-93754590D01*
X129465000Y-93754590D01*
X129465000Y-91806624D01*
X153296825Y-91806624D01*
X153449961Y-92177240D01*
X153733268Y-92461043D01*
X154103617Y-92614825D01*
X154504624Y-92615175D01*
X154759320Y-92509936D01*
X177312563Y-92509936D01*
X177378084Y-92709584D01*
X177841808Y-92835715D01*
X178318502Y-92774786D01*
X178475916Y-92709584D01*
X178541437Y-92509936D01*
X177927000Y-91895500D01*
X177312563Y-92509936D01*
X154759320Y-92509936D01*
X154875240Y-92462039D01*
X155159043Y-92178732D01*
X155312825Y-91808383D01*
X155313075Y-91521808D01*
X176698285Y-91521808D01*
X176759214Y-91998502D01*
X176824416Y-92155916D01*
X177024064Y-92221437D01*
X177638500Y-91607000D01*
X178215500Y-91607000D01*
X178829936Y-92221437D01*
X179029584Y-92155916D01*
X179155715Y-91692192D01*
X179094786Y-91215498D01*
X179029584Y-91058084D01*
X178829936Y-90992563D01*
X178215500Y-91607000D01*
X177638500Y-91607000D01*
X177024064Y-90992563D01*
X176824416Y-91058084D01*
X176698285Y-91521808D01*
X155313075Y-91521808D01*
X155313175Y-91407376D01*
X155160039Y-91036760D01*
X154876732Y-90752957D01*
X154758985Y-90704064D01*
X177312563Y-90704064D01*
X177927000Y-91318500D01*
X178541437Y-90704064D01*
X178475916Y-90504416D01*
X178012192Y-90378285D01*
X177535498Y-90439214D01*
X177378084Y-90504416D01*
X177312563Y-90704064D01*
X154758985Y-90704064D01*
X154506383Y-90599175D01*
X154105376Y-90598825D01*
X153734760Y-90751961D01*
X153450957Y-91035268D01*
X153297175Y-91405617D01*
X153296825Y-91806624D01*
X129465000Y-91806624D01*
X129465000Y-86134590D01*
X131377830Y-86134590D01*
X131377830Y-86890210D01*
X131462215Y-87314441D01*
X131702523Y-87674087D01*
X132062169Y-87914395D01*
X132486400Y-87998780D01*
X132910631Y-87914395D01*
X133270277Y-87674087D01*
X133510585Y-87314441D01*
X133594970Y-86890210D01*
X133594970Y-86134590D01*
X133917830Y-86134590D01*
X133917830Y-86890210D01*
X134002215Y-87314441D01*
X134242523Y-87674087D01*
X134602169Y-87914395D01*
X135026400Y-87998780D01*
X135450631Y-87914395D01*
X135810277Y-87674087D01*
X136050585Y-87314441D01*
X136134970Y-86890210D01*
X136134970Y-86134590D01*
X136457830Y-86134590D01*
X136457830Y-86890210D01*
X136542215Y-87314441D01*
X136782523Y-87674087D01*
X137142169Y-87914395D01*
X137566400Y-87998780D01*
X137990631Y-87914395D01*
X138350277Y-87674087D01*
X138590585Y-87314441D01*
X138674970Y-86890210D01*
X138674970Y-86134590D01*
X138997830Y-86134590D01*
X138997830Y-86890210D01*
X139082215Y-87314441D01*
X139322523Y-87674087D01*
X139682169Y-87914395D01*
X140106400Y-87998780D01*
X140530631Y-87914395D01*
X140890277Y-87674087D01*
X141130585Y-87314441D01*
X141214970Y-86890210D01*
X141214970Y-86134590D01*
X141537830Y-86134590D01*
X141537830Y-86890210D01*
X141622215Y-87314441D01*
X141862523Y-87674087D01*
X142222169Y-87914395D01*
X142646400Y-87998780D01*
X143070631Y-87914395D01*
X143430277Y-87674087D01*
X143670585Y-87314441D01*
X143754970Y-86890210D01*
X143754970Y-86134590D01*
X144077830Y-86134590D01*
X144077830Y-86890210D01*
X144162215Y-87314441D01*
X144402523Y-87674087D01*
X144762169Y-87914395D01*
X145186400Y-87998780D01*
X145610631Y-87914395D01*
X145970277Y-87674087D01*
X146210585Y-87314441D01*
X146294970Y-86890210D01*
X146294970Y-86134590D01*
X146617830Y-86134590D01*
X146617830Y-86890210D01*
X146702215Y-87314441D01*
X146942523Y-87674087D01*
X147302169Y-87914395D01*
X147726400Y-87998780D01*
X148150631Y-87914395D01*
X148510277Y-87674087D01*
X148750585Y-87314441D01*
X148834970Y-86890210D01*
X148834970Y-86134590D01*
X148750585Y-85710359D01*
X148551616Y-85412580D01*
X149150817Y-85412580D01*
X149150817Y-87612220D01*
X149175780Y-87744887D01*
X149254186Y-87866733D01*
X149373819Y-87948475D01*
X149515830Y-87977233D01*
X151016970Y-87977233D01*
X151149637Y-87952270D01*
X151271483Y-87873864D01*
X151353225Y-87754231D01*
X151381983Y-87612220D01*
X151381983Y-86109190D01*
X157514430Y-86109190D01*
X157514430Y-86864810D01*
X157598815Y-87289041D01*
X157839123Y-87648687D01*
X158198769Y-87888995D01*
X158623000Y-87973380D01*
X159047231Y-87888995D01*
X159406877Y-87648687D01*
X159647185Y-87289041D01*
X159731570Y-86864810D01*
X159731570Y-86109190D01*
X160054430Y-86109190D01*
X160054430Y-86864810D01*
X160138815Y-87289041D01*
X160379123Y-87648687D01*
X160738769Y-87888995D01*
X161163000Y-87973380D01*
X161587231Y-87888995D01*
X161946877Y-87648687D01*
X162187185Y-87289041D01*
X162271570Y-86864810D01*
X162271570Y-86109190D01*
X162594430Y-86109190D01*
X162594430Y-86864810D01*
X162678815Y-87289041D01*
X162919123Y-87648687D01*
X163278769Y-87888995D01*
X163703000Y-87973380D01*
X164127231Y-87888995D01*
X164486877Y-87648687D01*
X164727185Y-87289041D01*
X164811570Y-86864810D01*
X164811570Y-86109190D01*
X165134430Y-86109190D01*
X165134430Y-86864810D01*
X165218815Y-87289041D01*
X165459123Y-87648687D01*
X165818769Y-87888995D01*
X166243000Y-87973380D01*
X166667231Y-87888995D01*
X167026877Y-87648687D01*
X167267185Y-87289041D01*
X167351570Y-86864810D01*
X167351570Y-86109190D01*
X167674430Y-86109190D01*
X167674430Y-86864810D01*
X167758815Y-87289041D01*
X167999123Y-87648687D01*
X168358769Y-87888995D01*
X168783000Y-87973380D01*
X169207231Y-87888995D01*
X169566877Y-87648687D01*
X169807185Y-87289041D01*
X169891570Y-86864810D01*
X169891570Y-86109190D01*
X170214430Y-86109190D01*
X170214430Y-86864810D01*
X170298815Y-87289041D01*
X170539123Y-87648687D01*
X170898769Y-87888995D01*
X171323000Y-87973380D01*
X171747231Y-87888995D01*
X172106877Y-87648687D01*
X172347185Y-87289041D01*
X172431570Y-86864810D01*
X172431570Y-86109190D01*
X172347185Y-85684959D01*
X172148216Y-85387180D01*
X172747417Y-85387180D01*
X172747417Y-87586820D01*
X172772380Y-87719487D01*
X172850786Y-87841333D01*
X172970419Y-87923075D01*
X173112430Y-87951833D01*
X174613570Y-87951833D01*
X174746237Y-87926870D01*
X174868083Y-87848464D01*
X174949825Y-87728831D01*
X174978583Y-87586820D01*
X174978583Y-85387180D01*
X174953620Y-85254513D01*
X174875214Y-85132667D01*
X174755581Y-85050925D01*
X174613570Y-85022167D01*
X173112430Y-85022167D01*
X172979763Y-85047130D01*
X172857917Y-85125536D01*
X172776175Y-85245169D01*
X172747417Y-85387180D01*
X172148216Y-85387180D01*
X172106877Y-85325313D01*
X171747231Y-85085005D01*
X171323000Y-85000620D01*
X170898769Y-85085005D01*
X170539123Y-85325313D01*
X170298815Y-85684959D01*
X170214430Y-86109190D01*
X169891570Y-86109190D01*
X169807185Y-85684959D01*
X169566877Y-85325313D01*
X169207231Y-85085005D01*
X168783000Y-85000620D01*
X168358769Y-85085005D01*
X167999123Y-85325313D01*
X167758815Y-85684959D01*
X167674430Y-86109190D01*
X167351570Y-86109190D01*
X167267185Y-85684959D01*
X167026877Y-85325313D01*
X166667231Y-85085005D01*
X166243000Y-85000620D01*
X165818769Y-85085005D01*
X165459123Y-85325313D01*
X165218815Y-85684959D01*
X165134430Y-86109190D01*
X164811570Y-86109190D01*
X164727185Y-85684959D01*
X164486877Y-85325313D01*
X164127231Y-85085005D01*
X163703000Y-85000620D01*
X163278769Y-85085005D01*
X162919123Y-85325313D01*
X162678815Y-85684959D01*
X162594430Y-86109190D01*
X162271570Y-86109190D01*
X162187185Y-85684959D01*
X161946877Y-85325313D01*
X161587231Y-85085005D01*
X161163000Y-85000620D01*
X160738769Y-85085005D01*
X160379123Y-85325313D01*
X160138815Y-85684959D01*
X160054430Y-86109190D01*
X159731570Y-86109190D01*
X159647185Y-85684959D01*
X159406877Y-85325313D01*
X159047231Y-85085005D01*
X158623000Y-85000620D01*
X158198769Y-85085005D01*
X157839123Y-85325313D01*
X157598815Y-85684959D01*
X157514430Y-86109190D01*
X151381983Y-86109190D01*
X151381983Y-85412580D01*
X151357020Y-85279913D01*
X151278614Y-85158067D01*
X151158981Y-85076325D01*
X151016970Y-85047567D01*
X149515830Y-85047567D01*
X149383163Y-85072530D01*
X149261317Y-85150936D01*
X149179575Y-85270569D01*
X149150817Y-85412580D01*
X148551616Y-85412580D01*
X148510277Y-85350713D01*
X148150631Y-85110405D01*
X147726400Y-85026020D01*
X147302169Y-85110405D01*
X146942523Y-85350713D01*
X146702215Y-85710359D01*
X146617830Y-86134590D01*
X146294970Y-86134590D01*
X146210585Y-85710359D01*
X145970277Y-85350713D01*
X145610631Y-85110405D01*
X145186400Y-85026020D01*
X144762169Y-85110405D01*
X144402523Y-85350713D01*
X144162215Y-85710359D01*
X144077830Y-86134590D01*
X143754970Y-86134590D01*
X143670585Y-85710359D01*
X143430277Y-85350713D01*
X143070631Y-85110405D01*
X142646400Y-85026020D01*
X142222169Y-85110405D01*
X141862523Y-85350713D01*
X141622215Y-85710359D01*
X141537830Y-86134590D01*
X141214970Y-86134590D01*
X141130585Y-85710359D01*
X140890277Y-85350713D01*
X140530631Y-85110405D01*
X140106400Y-85026020D01*
X139682169Y-85110405D01*
X139322523Y-85350713D01*
X139082215Y-85710359D01*
X138997830Y-86134590D01*
X138674970Y-86134590D01*
X138590585Y-85710359D01*
X138350277Y-85350713D01*
X137990631Y-85110405D01*
X137566400Y-85026020D01*
X137142169Y-85110405D01*
X136782523Y-85350713D01*
X136542215Y-85710359D01*
X136457830Y-86134590D01*
X136134970Y-86134590D01*
X136050585Y-85710359D01*
X135810277Y-85350713D01*
X135450631Y-85110405D01*
X135026400Y-85026020D01*
X134602169Y-85110405D01*
X134242523Y-85350713D01*
X134002215Y-85710359D01*
X133917830Y-86134590D01*
X133594970Y-86134590D01*
X133510585Y-85710359D01*
X133270277Y-85350713D01*
X132910631Y-85110405D01*
X132486400Y-85026020D01*
X132062169Y-85110405D01*
X131702523Y-85350713D01*
X131462215Y-85710359D01*
X131377830Y-86134590D01*
X129465000Y-86134590D01*
X129465000Y-83400459D01*
X129742189Y-83678133D01*
X130167649Y-83854799D01*
X130628330Y-83855201D01*
X131054098Y-83679277D01*
X131380133Y-83353811D01*
X131556799Y-82928351D01*
X131557201Y-82467670D01*
X131381277Y-82041902D01*
X131055811Y-81715867D01*
X131048906Y-81713000D01*
X132288072Y-81713000D01*
X132283902Y-81714723D01*
X132283902Y-81714723D01*
G37*
X132283902Y-81714723D02*
X131957867Y-82040189D01*
X131781201Y-82465649D01*
X131780799Y-82926330D01*
X131956723Y-83352098D01*
X132282189Y-83678133D01*
X132707649Y-83854799D01*
X133168330Y-83855201D01*
X133594098Y-83679277D01*
X133920133Y-83353811D01*
X134096799Y-82928351D01*
X134097201Y-82467670D01*
X133921277Y-82041902D01*
X133595811Y-81715867D01*
X133588906Y-81713000D01*
X134828072Y-81713000D01*
X134823902Y-81714723D01*
X134497867Y-82040189D01*
X134321201Y-82465649D01*
X134320799Y-82926330D01*
X134496723Y-83352098D01*
X134822189Y-83678133D01*
X135247649Y-83854799D01*
X135708330Y-83855201D01*
X136134098Y-83679277D01*
X136460133Y-83353811D01*
X136636799Y-82928351D01*
X136637201Y-82467670D01*
X136461277Y-82041902D01*
X136135811Y-81715867D01*
X136128906Y-81713000D01*
X137368072Y-81713000D01*
X137363902Y-81714723D01*
X137037867Y-82040189D01*
X136861201Y-82465649D01*
X136860799Y-82926330D01*
X137036723Y-83352098D01*
X137362189Y-83678133D01*
X137787649Y-83854799D01*
X138248330Y-83855201D01*
X138674098Y-83679277D01*
X139000133Y-83353811D01*
X139176799Y-82928351D01*
X139177201Y-82467670D01*
X139001277Y-82041902D01*
X138675811Y-81715867D01*
X138668906Y-81713000D01*
X139908072Y-81713000D01*
X139903902Y-81714723D01*
X139577867Y-82040189D01*
X139401201Y-82465649D01*
X139400799Y-82926330D01*
X139576723Y-83352098D01*
X139902189Y-83678133D01*
X140327649Y-83854799D01*
X140788330Y-83855201D01*
X141214098Y-83679277D01*
X141540133Y-83353811D01*
X141716799Y-82928351D01*
X141717201Y-82467670D01*
X141541277Y-82041902D01*
X141215811Y-81715867D01*
X141208906Y-81713000D01*
X142448072Y-81713000D01*
X142443902Y-81714723D01*
X142117867Y-82040189D01*
X141941201Y-82465649D01*
X141940799Y-82926330D01*
X142116723Y-83352098D01*
X142442189Y-83678133D01*
X142867649Y-83854799D01*
X143328330Y-83855201D01*
X143754098Y-83679277D01*
X144080133Y-83353811D01*
X144256799Y-82928351D01*
X144257201Y-82467670D01*
X144081277Y-82041902D01*
X143755811Y-81715867D01*
X143748906Y-81713000D01*
X144988072Y-81713000D01*
X144983902Y-81714723D01*
X144657867Y-82040189D01*
X144481201Y-82465649D01*
X144480799Y-82926330D01*
X144656723Y-83352098D01*
X144982189Y-83678133D01*
X145407649Y-83854799D01*
X145868330Y-83855201D01*
X146294098Y-83679277D01*
X146620133Y-83353811D01*
X146796799Y-82928351D01*
X146797201Y-82467670D01*
X146621277Y-82041902D01*
X146295811Y-81715867D01*
X146288906Y-81713000D01*
X147528072Y-81713000D01*
X147523902Y-81714723D01*
X147197867Y-82040189D01*
X147021201Y-82465649D01*
X147020799Y-82926330D01*
X147196723Y-83352098D01*
X147522189Y-83678133D01*
X147947649Y-83854799D01*
X148408330Y-83855201D01*
X148834098Y-83679277D01*
X149160133Y-83353811D01*
X149336799Y-82928351D01*
X149337201Y-82467670D01*
X149161277Y-82041902D01*
X148835811Y-81715867D01*
X148828906Y-81713000D01*
X157688072Y-81713000D01*
X157683902Y-81714723D01*
X157357867Y-82040189D01*
X157181201Y-82465649D01*
X157180799Y-82926330D01*
X157356723Y-83352098D01*
X157682189Y-83678133D01*
X158107649Y-83854799D01*
X158568330Y-83855201D01*
X158994098Y-83679277D01*
X159320133Y-83353811D01*
X159496799Y-82928351D01*
X159497201Y-82467670D01*
X159321277Y-82041902D01*
X158995811Y-81715867D01*
X158988906Y-81713000D01*
X160228072Y-81713000D01*
X160223902Y-81714723D01*
X159897867Y-82040189D01*
X159721201Y-82465649D01*
X159720799Y-82926330D01*
X159896723Y-83352098D01*
X160222189Y-83678133D01*
X160647649Y-83854799D01*
X161108330Y-83855201D01*
X161534098Y-83679277D01*
X161860133Y-83353811D01*
X162036799Y-82928351D01*
X162037201Y-82467670D01*
X161861277Y-82041902D01*
X161535811Y-81715867D01*
X161528906Y-81713000D01*
X162768072Y-81713000D01*
X162763902Y-81714723D01*
X162437867Y-82040189D01*
X162261201Y-82465649D01*
X162260799Y-82926330D01*
X162436723Y-83352098D01*
X162762189Y-83678133D01*
X163187649Y-83854799D01*
X163648330Y-83855201D01*
X164074098Y-83679277D01*
X164400133Y-83353811D01*
X164576799Y-82928351D01*
X164577201Y-82467670D01*
X164401277Y-82041902D01*
X164075811Y-81715867D01*
X164068906Y-81713000D01*
X165308072Y-81713000D01*
X165303902Y-81714723D01*
X164977867Y-82040189D01*
X164801201Y-82465649D01*
X164800799Y-82926330D01*
X164976723Y-83352098D01*
X165302189Y-83678133D01*
X165727649Y-83854799D01*
X166188330Y-83855201D01*
X166614098Y-83679277D01*
X166940133Y-83353811D01*
X167116799Y-82928351D01*
X167117201Y-82467670D01*
X166941277Y-82041902D01*
X166615811Y-81715867D01*
X166608906Y-81713000D01*
X167848072Y-81713000D01*
X167843902Y-81714723D01*
X167517867Y-82040189D01*
X167341201Y-82465649D01*
X167340799Y-82926330D01*
X167516723Y-83352098D01*
X167842189Y-83678133D01*
X168267649Y-83854799D01*
X168728330Y-83855201D01*
X169154098Y-83679277D01*
X169480133Y-83353811D01*
X169656799Y-82928351D01*
X169657201Y-82467670D01*
X169481277Y-82041902D01*
X169155811Y-81715867D01*
X169148906Y-81713000D01*
X170388072Y-81713000D01*
X170383902Y-81714723D01*
X170057867Y-82040189D01*
X169881201Y-82465649D01*
X169880799Y-82926330D01*
X170056723Y-83352098D01*
X170382189Y-83678133D01*
X170807649Y-83854799D01*
X171268330Y-83855201D01*
X171694098Y-83679277D01*
X172020133Y-83353811D01*
X172196799Y-82928351D01*
X172197201Y-82467670D01*
X172021277Y-82041902D01*
X171695811Y-81715867D01*
X171688906Y-81713000D01*
X172928072Y-81713000D01*
X172923902Y-81714723D01*
X172597867Y-82040189D01*
X172421201Y-82465649D01*
X172420799Y-82926330D01*
X172596723Y-83352098D01*
X172922189Y-83678133D01*
X173347649Y-83854799D01*
X173808330Y-83855201D01*
X174234098Y-83679277D01*
X174560133Y-83353811D01*
X174736799Y-82928351D01*
X174737201Y-82467670D01*
X174561277Y-82041902D01*
X174235811Y-81715867D01*
X174228906Y-81713000D01*
X175468072Y-81713000D01*
X175463902Y-81714723D01*
X175137867Y-82040189D01*
X174961201Y-82465649D01*
X174960799Y-82926330D01*
X175136723Y-83352098D01*
X175462189Y-83678133D01*
X175887649Y-83854799D01*
X176348330Y-83855201D01*
X176700289Y-83709774D01*
X177934725Y-83709774D01*
X178019070Y-83924852D01*
X178537661Y-84076278D01*
X179074724Y-84017721D01*
X179298930Y-83924852D01*
X179383275Y-83709774D01*
X178659000Y-82985500D01*
X177934725Y-83709774D01*
X176700289Y-83709774D01*
X176774098Y-83679277D01*
X177100133Y-83353811D01*
X177276799Y-82928351D01*
X177277106Y-82575661D01*
X177279722Y-82575661D01*
X177338279Y-83112724D01*
X177431148Y-83336930D01*
X177646226Y-83421275D01*
X178370500Y-82697000D01*
X177646226Y-81972725D01*
X177431148Y-82057070D01*
X177279722Y-82575661D01*
X177277106Y-82575661D01*
X177277201Y-82467670D01*
X177101277Y-82041902D01*
X176775811Y-81715867D01*
X176768906Y-81713000D01*
X177963499Y-81713000D01*
X178659000Y-82408500D01*
X179354501Y-81713000D01*
X179653000Y-81713000D01*
X179653000Y-81991499D01*
X178947500Y-82697000D01*
X179653000Y-83402501D01*
X179653000Y-97310274D01*
X179641277Y-97281902D01*
X179315811Y-96955867D01*
X178890351Y-96779201D01*
X178429670Y-96778799D01*
X178003902Y-96954723D01*
X177677867Y-97280189D01*
X177501201Y-97705649D01*
X177500799Y-98166330D01*
X177676723Y-98592098D01*
X177965121Y-98881000D01*
X176812442Y-98881000D01*
X177100133Y-98593811D01*
X177276799Y-98168351D01*
X177277201Y-97707670D01*
X177101277Y-97281902D01*
X176775811Y-96955867D01*
X176350351Y-96779201D01*
X175889670Y-96778799D01*
X175463902Y-96954723D01*
X175137867Y-97280189D01*
X174961201Y-97705649D01*
X174960799Y-98166330D01*
X175136723Y-98592098D01*
X175425121Y-98881000D01*
X174272442Y-98881000D01*
X174560133Y-98593811D01*
X174736799Y-98168351D01*
X174737201Y-97707670D01*
X174561277Y-97281902D01*
X174235811Y-96955867D01*
X173810351Y-96779201D01*
X173349670Y-96778799D01*
X172923902Y-96954723D01*
X172597867Y-97280189D01*
X172421201Y-97705649D01*
X172420799Y-98166330D01*
X172596723Y-98592098D01*
X172885121Y-98881000D01*
X171732442Y-98881000D01*
X172020133Y-98593811D01*
X172196799Y-98168351D01*
X172197201Y-97707670D01*
X172021277Y-97281902D01*
X171695811Y-96955867D01*
X171270351Y-96779201D01*
X170809670Y-96778799D01*
X170383902Y-96954723D01*
X170057867Y-97280189D01*
X169881201Y-97705649D01*
X169880799Y-98166330D01*
X170056723Y-98592098D01*
X170345121Y-98881000D01*
X169192442Y-98881000D01*
X169480133Y-98593811D01*
X169656799Y-98168351D01*
X169657201Y-97707670D01*
X169481277Y-97281902D01*
X169155811Y-96955867D01*
X168730351Y-96779201D01*
X168269670Y-96778799D01*
X167843902Y-96954723D01*
X167517867Y-97280189D01*
X167341201Y-97705649D01*
X167340799Y-98166330D01*
X167516723Y-98592098D01*
X167805121Y-98881000D01*
X166652442Y-98881000D01*
X166940133Y-98593811D01*
X167116799Y-98168351D01*
X167117201Y-97707670D01*
X166941277Y-97281902D01*
X166615811Y-96955867D01*
X166190351Y-96779201D01*
X165729670Y-96778799D01*
X165303902Y-96954723D01*
X164977867Y-97280189D01*
X164801201Y-97705649D01*
X164800799Y-98166330D01*
X164976723Y-98592098D01*
X165265121Y-98881000D01*
X164112442Y-98881000D01*
X164400133Y-98593811D01*
X164576799Y-98168351D01*
X164577201Y-97707670D01*
X164401277Y-97281902D01*
X164075811Y-96955867D01*
X163650351Y-96779201D01*
X163189670Y-96778799D01*
X162763902Y-96954723D01*
X162437867Y-97280189D01*
X162261201Y-97705649D01*
X162260799Y-98166330D01*
X162436723Y-98592098D01*
X162725121Y-98881000D01*
X161572442Y-98881000D01*
X161860133Y-98593811D01*
X162036799Y-98168351D01*
X162037201Y-97707670D01*
X161861277Y-97281902D01*
X161535811Y-96955867D01*
X161110351Y-96779201D01*
X160649670Y-96778799D01*
X160223902Y-96954723D01*
X159897867Y-97280189D01*
X159721201Y-97705649D01*
X159720799Y-98166330D01*
X159896723Y-98592098D01*
X160185121Y-98881000D01*
X159032442Y-98881000D01*
X159320133Y-98593811D01*
X159496799Y-98168351D01*
X159497201Y-97707670D01*
X159321277Y-97281902D01*
X158995811Y-96955867D01*
X158570351Y-96779201D01*
X158109670Y-96778799D01*
X157683902Y-96954723D01*
X157357867Y-97280189D01*
X157181201Y-97705649D01*
X157180799Y-98166330D01*
X157356723Y-98592098D01*
X157645121Y-98881000D01*
X148872442Y-98881000D01*
X149160133Y-98593811D01*
X149336799Y-98168351D01*
X149337201Y-97707670D01*
X149161277Y-97281902D01*
X148835811Y-96955867D01*
X148410351Y-96779201D01*
X147949670Y-96778799D01*
X147523902Y-96954723D01*
X147197867Y-97280189D01*
X147021201Y-97705649D01*
X147020799Y-98166330D01*
X147196723Y-98592098D01*
X147485121Y-98881000D01*
X146332442Y-98881000D01*
X146620133Y-98593811D01*
X146796799Y-98168351D01*
X146797201Y-97707670D01*
X146621277Y-97281902D01*
X146295811Y-96955867D01*
X145870351Y-96779201D01*
X145409670Y-96778799D01*
X144983902Y-96954723D01*
X144657867Y-97280189D01*
X144481201Y-97705649D01*
X144480799Y-98166330D01*
X144656723Y-98592098D01*
X144945121Y-98881000D01*
X143792442Y-98881000D01*
X144080133Y-98593811D01*
X144256799Y-98168351D01*
X144257201Y-97707670D01*
X144081277Y-97281902D01*
X143755811Y-96955867D01*
X143330351Y-96779201D01*
X142869670Y-96778799D01*
X142443902Y-96954723D01*
X142117867Y-97280189D01*
X141941201Y-97705649D01*
X141940799Y-98166330D01*
X142116723Y-98592098D01*
X142405121Y-98881000D01*
X141252442Y-98881000D01*
X141540133Y-98593811D01*
X141716799Y-98168351D01*
X141717201Y-97707670D01*
X141541277Y-97281902D01*
X141215811Y-96955867D01*
X140790351Y-96779201D01*
X140329670Y-96778799D01*
X139903902Y-96954723D01*
X139577867Y-97280189D01*
X139401201Y-97705649D01*
X139400799Y-98166330D01*
X139576723Y-98592098D01*
X139865121Y-98881000D01*
X138712442Y-98881000D01*
X139000133Y-98593811D01*
X139176799Y-98168351D01*
X139177201Y-97707670D01*
X139001277Y-97281902D01*
X138675811Y-96955867D01*
X138250351Y-96779201D01*
X137789670Y-96778799D01*
X137363902Y-96954723D01*
X137037867Y-97280189D01*
X136861201Y-97705649D01*
X136860799Y-98166330D01*
X137036723Y-98592098D01*
X137325121Y-98881000D01*
X136172442Y-98881000D01*
X136460133Y-98593811D01*
X136636799Y-98168351D01*
X136637201Y-97707670D01*
X136461277Y-97281902D01*
X136135811Y-96955867D01*
X135710351Y-96779201D01*
X135249670Y-96778799D01*
X134823902Y-96954723D01*
X134497867Y-97280189D01*
X134321201Y-97705649D01*
X134320799Y-98166330D01*
X134496723Y-98592098D01*
X134785121Y-98881000D01*
X133632442Y-98881000D01*
X133920133Y-98593811D01*
X134096799Y-98168351D01*
X134097201Y-97707670D01*
X133921277Y-97281902D01*
X133595811Y-96955867D01*
X133170351Y-96779201D01*
X132709670Y-96778799D01*
X132283902Y-96954723D01*
X131957867Y-97280189D01*
X131781201Y-97705649D01*
X131781177Y-97732998D01*
X131667502Y-97732998D01*
X131807000Y-97593500D01*
X131807000Y-96976007D01*
X131722049Y-96770918D01*
X131565082Y-96613950D01*
X131359993Y-96529000D01*
X130742500Y-96529000D01*
X130603000Y-96668500D01*
X130603000Y-97733000D01*
X130623000Y-97733000D01*
X130623000Y-98141000D01*
X130603000Y-98141000D01*
X130603000Y-98161000D01*
X130195000Y-98161000D01*
X130195000Y-98141000D01*
X130175000Y-98141000D01*
X130175000Y-97733000D01*
X130195000Y-97733000D01*
X130195000Y-96668500D01*
X130055500Y-96529000D01*
X129465000Y-96529000D01*
X129465000Y-93754590D01*
X131377830Y-93754590D01*
X131377830Y-94510210D01*
X131462215Y-94934441D01*
X131702523Y-95294087D01*
X132062169Y-95534395D01*
X132486400Y-95618780D01*
X132910631Y-95534395D01*
X133270277Y-95294087D01*
X133510585Y-94934441D01*
X133594970Y-94510210D01*
X133594970Y-93754590D01*
X133917830Y-93754590D01*
X133917830Y-94510210D01*
X134002215Y-94934441D01*
X134242523Y-95294087D01*
X134602169Y-95534395D01*
X135026400Y-95618780D01*
X135450631Y-95534395D01*
X135810277Y-95294087D01*
X136050585Y-94934441D01*
X136134970Y-94510210D01*
X136134970Y-93754590D01*
X136457830Y-93754590D01*
X136457830Y-94510210D01*
X136542215Y-94934441D01*
X136782523Y-95294087D01*
X137142169Y-95534395D01*
X137566400Y-95618780D01*
X137990631Y-95534395D01*
X138350277Y-95294087D01*
X138590585Y-94934441D01*
X138674970Y-94510210D01*
X138674970Y-93754590D01*
X138997830Y-93754590D01*
X138997830Y-94510210D01*
X139082215Y-94934441D01*
X139322523Y-95294087D01*
X139682169Y-95534395D01*
X140106400Y-95618780D01*
X140530631Y-95534395D01*
X140890277Y-95294087D01*
X141130585Y-94934441D01*
X141214970Y-94510210D01*
X141214970Y-93754590D01*
X141537830Y-93754590D01*
X141537830Y-94510210D01*
X141622215Y-94934441D01*
X141862523Y-95294087D01*
X142222169Y-95534395D01*
X142646400Y-95618780D01*
X143070631Y-95534395D01*
X143430277Y-95294087D01*
X143670585Y-94934441D01*
X143754970Y-94510210D01*
X143754970Y-93754590D01*
X144077830Y-93754590D01*
X144077830Y-94510210D01*
X144162215Y-94934441D01*
X144402523Y-95294087D01*
X144762169Y-95534395D01*
X145186400Y-95618780D01*
X145610631Y-95534395D01*
X145970277Y-95294087D01*
X146210585Y-94934441D01*
X146294970Y-94510210D01*
X146294970Y-93754590D01*
X146617830Y-93754590D01*
X146617830Y-94510210D01*
X146702215Y-94934441D01*
X146942523Y-95294087D01*
X147302169Y-95534395D01*
X147726400Y-95618780D01*
X148150631Y-95534395D01*
X148510277Y-95294087D01*
X148750585Y-94934441D01*
X148828118Y-94544655D01*
X148940096Y-94544655D01*
X149065166Y-95047414D01*
X149373113Y-95464040D01*
X149862709Y-95726395D01*
X150062400Y-95632784D01*
X150062400Y-94336400D01*
X150470400Y-94336400D01*
X150470400Y-95632784D01*
X150670091Y-95726395D01*
X151159687Y-95464040D01*
X151467634Y-95047414D01*
X151592704Y-94544655D01*
X151526708Y-94450500D01*
X153097000Y-94450500D01*
X153097000Y-94867993D01*
X153181950Y-95073082D01*
X153338918Y-95230049D01*
X153544007Y-95315000D01*
X153961500Y-95315000D01*
X154101000Y-95175500D01*
X154101000Y-94311000D01*
X154509000Y-94311000D01*
X154509000Y-95175500D01*
X154648500Y-95315000D01*
X155065993Y-95315000D01*
X155170981Y-95271512D01*
X155170886Y-95380310D01*
X155270849Y-95622240D01*
X155455786Y-95807500D01*
X155697541Y-95907886D01*
X155959310Y-95908114D01*
X156201240Y-95808151D01*
X156386500Y-95623214D01*
X156486886Y-95381459D01*
X156487114Y-95119690D01*
X156387151Y-94877760D01*
X156202214Y-94692500D01*
X155960459Y-94592114D01*
X155698690Y-94591886D01*
X155513000Y-94668611D01*
X155513000Y-94450500D01*
X155373500Y-94311000D01*
X154509000Y-94311000D01*
X154101000Y-94311000D01*
X153236500Y-94311000D01*
X153097000Y-94450500D01*
X151526708Y-94450500D01*
X151446731Y-94336400D01*
X150470400Y-94336400D01*
X150062400Y-94336400D01*
X149086069Y-94336400D01*
X148940096Y-94544655D01*
X148828118Y-94544655D01*
X148834970Y-94510210D01*
X148834970Y-93754590D01*
X148828119Y-93720145D01*
X148940096Y-93720145D01*
X149086069Y-93928400D01*
X150062400Y-93928400D01*
X150062400Y-92632016D01*
X150470400Y-92632016D01*
X150470400Y-93928400D01*
X151446731Y-93928400D01*
X151592704Y-93720145D01*
X151499631Y-93346007D01*
X153097000Y-93346007D01*
X153097000Y-93763500D01*
X153236500Y-93903000D01*
X154101000Y-93903000D01*
X154101000Y-93038500D01*
X154509000Y-93038500D01*
X154509000Y-93903000D01*
X155373500Y-93903000D01*
X155513000Y-93763500D01*
X155513000Y-93729190D01*
X157514430Y-93729190D01*
X157514430Y-94484810D01*
X157598815Y-94909041D01*
X157839123Y-95268687D01*
X158198769Y-95508995D01*
X158623000Y-95593380D01*
X159047231Y-95508995D01*
X159406877Y-95268687D01*
X159647185Y-94909041D01*
X159731570Y-94484810D01*
X159731570Y-93729190D01*
X160054430Y-93729190D01*
X160054430Y-94484810D01*
X160138815Y-94909041D01*
X160379123Y-95268687D01*
X160738769Y-95508995D01*
X161163000Y-95593380D01*
X161587231Y-95508995D01*
X161946877Y-95268687D01*
X162187185Y-94909041D01*
X162271570Y-94484810D01*
X162271570Y-93729190D01*
X162594430Y-93729190D01*
X162594430Y-94484810D01*
X162678815Y-94909041D01*
X162919123Y-95268687D01*
X163278769Y-95508995D01*
X163703000Y-95593380D01*
X164127231Y-95508995D01*
X164486877Y-95268687D01*
X164727185Y-94909041D01*
X164811570Y-94484810D01*
X164811570Y-93729190D01*
X165134430Y-93729190D01*
X165134430Y-94484810D01*
X165218815Y-94909041D01*
X165459123Y-95268687D01*
X165818769Y-95508995D01*
X166243000Y-95593380D01*
X166667231Y-95508995D01*
X167026877Y-95268687D01*
X167267185Y-94909041D01*
X167351570Y-94484810D01*
X167351570Y-93729190D01*
X167674430Y-93729190D01*
X167674430Y-94484810D01*
X167758815Y-94909041D01*
X167999123Y-95268687D01*
X168358769Y-95508995D01*
X168783000Y-95593380D01*
X169207231Y-95508995D01*
X169566877Y-95268687D01*
X169807185Y-94909041D01*
X169891570Y-94484810D01*
X169891570Y-93729190D01*
X170214430Y-93729190D01*
X170214430Y-94484810D01*
X170298815Y-94909041D01*
X170539123Y-95268687D01*
X170898769Y-95508995D01*
X171323000Y-95593380D01*
X171747231Y-95508995D01*
X172106877Y-95268687D01*
X172347185Y-94909041D01*
X172424718Y-94519255D01*
X172536696Y-94519255D01*
X172661766Y-95022014D01*
X172969713Y-95438640D01*
X173459309Y-95700995D01*
X173659000Y-95607384D01*
X173659000Y-94311000D01*
X174067000Y-94311000D01*
X174067000Y-95607384D01*
X174266691Y-95700995D01*
X174756287Y-95438640D01*
X175064234Y-95022014D01*
X175189304Y-94519255D01*
X175043331Y-94311000D01*
X174067000Y-94311000D01*
X173659000Y-94311000D01*
X172682669Y-94311000D01*
X172536696Y-94519255D01*
X172424718Y-94519255D01*
X172431570Y-94484810D01*
X172431570Y-93729190D01*
X172424719Y-93694745D01*
X172536696Y-93694745D01*
X172682669Y-93903000D01*
X173659000Y-93903000D01*
X173659000Y-92606616D01*
X174067000Y-92606616D01*
X174067000Y-93903000D01*
X175043331Y-93903000D01*
X175189304Y-93694745D01*
X175130161Y-93457000D01*
X176911987Y-93457000D01*
X176911987Y-94757000D01*
X176936950Y-94889667D01*
X177015356Y-95011513D01*
X177134989Y-95093255D01*
X177277000Y-95122013D01*
X178577000Y-95122013D01*
X178709667Y-95097050D01*
X178831513Y-95018644D01*
X178913255Y-94899011D01*
X178942013Y-94757000D01*
X178942013Y-93457000D01*
X178917050Y-93324333D01*
X178838644Y-93202487D01*
X178719011Y-93120745D01*
X178577000Y-93091987D01*
X177277000Y-93091987D01*
X177144333Y-93116950D01*
X177022487Y-93195356D01*
X176940745Y-93314989D01*
X176911987Y-93457000D01*
X175130161Y-93457000D01*
X175064234Y-93191986D01*
X174756287Y-92775360D01*
X174266691Y-92513005D01*
X174067000Y-92606616D01*
X173659000Y-92606616D01*
X173459309Y-92513005D01*
X172969713Y-92775360D01*
X172661766Y-93191986D01*
X172536696Y-93694745D01*
X172424719Y-93694745D01*
X172347185Y-93304959D01*
X172106877Y-92945313D01*
X171747231Y-92705005D01*
X171323000Y-92620620D01*
X170898769Y-92705005D01*
X170539123Y-92945313D01*
X170298815Y-93304959D01*
X170214430Y-93729190D01*
X169891570Y-93729190D01*
X169807185Y-93304959D01*
X169566877Y-92945313D01*
X169207231Y-92705005D01*
X168783000Y-92620620D01*
X168358769Y-92705005D01*
X167999123Y-92945313D01*
X167758815Y-93304959D01*
X167674430Y-93729190D01*
X167351570Y-93729190D01*
X167267185Y-93304959D01*
X167026877Y-92945313D01*
X166667231Y-92705005D01*
X166243000Y-92620620D01*
X165818769Y-92705005D01*
X165459123Y-92945313D01*
X165218815Y-93304959D01*
X165134430Y-93729190D01*
X164811570Y-93729190D01*
X164727185Y-93304959D01*
X164486877Y-92945313D01*
X164127231Y-92705005D01*
X163703000Y-92620620D01*
X163278769Y-92705005D01*
X162919123Y-92945313D01*
X162678815Y-93304959D01*
X162594430Y-93729190D01*
X162271570Y-93729190D01*
X162187185Y-93304959D01*
X161946877Y-92945313D01*
X161587231Y-92705005D01*
X161163000Y-92620620D01*
X160738769Y-92705005D01*
X160379123Y-92945313D01*
X160138815Y-93304959D01*
X160054430Y-93729190D01*
X159731570Y-93729190D01*
X159647185Y-93304959D01*
X159406877Y-92945313D01*
X159047231Y-92705005D01*
X158623000Y-92620620D01*
X158198769Y-92705005D01*
X157839123Y-92945313D01*
X157598815Y-93304959D01*
X157514430Y-93729190D01*
X155513000Y-93729190D01*
X155513000Y-93346007D01*
X155428050Y-93140918D01*
X155271082Y-92983951D01*
X155065993Y-92899000D01*
X154648500Y-92899000D01*
X154509000Y-93038500D01*
X154101000Y-93038500D01*
X153961500Y-92899000D01*
X153544007Y-92899000D01*
X153338918Y-92983951D01*
X153181950Y-93140918D01*
X153097000Y-93346007D01*
X151499631Y-93346007D01*
X151467634Y-93217386D01*
X151159687Y-92800760D01*
X150670091Y-92538405D01*
X150470400Y-92632016D01*
X150062400Y-92632016D01*
X149862709Y-92538405D01*
X149373113Y-92800760D01*
X149065166Y-93217386D01*
X148940096Y-93720145D01*
X148828119Y-93720145D01*
X148750585Y-93330359D01*
X148510277Y-92970713D01*
X148150631Y-92730405D01*
X147726400Y-92646020D01*
X147302169Y-92730405D01*
X146942523Y-92970713D01*
X146702215Y-93330359D01*
X146617830Y-93754590D01*
X146294970Y-93754590D01*
X146210585Y-93330359D01*
X145970277Y-92970713D01*
X145610631Y-92730405D01*
X145186400Y-92646020D01*
X144762169Y-92730405D01*
X144402523Y-92970713D01*
X144162215Y-93330359D01*
X144077830Y-93754590D01*
X143754970Y-93754590D01*
X143670585Y-93330359D01*
X143430277Y-92970713D01*
X143070631Y-92730405D01*
X142646400Y-92646020D01*
X142222169Y-92730405D01*
X141862523Y-92970713D01*
X141622215Y-93330359D01*
X141537830Y-93754590D01*
X141214970Y-93754590D01*
X141130585Y-93330359D01*
X140890277Y-92970713D01*
X140530631Y-92730405D01*
X140106400Y-92646020D01*
X139682169Y-92730405D01*
X139322523Y-92970713D01*
X139082215Y-93330359D01*
X138997830Y-93754590D01*
X138674970Y-93754590D01*
X138590585Y-93330359D01*
X138350277Y-92970713D01*
X137990631Y-92730405D01*
X137566400Y-92646020D01*
X137142169Y-92730405D01*
X136782523Y-92970713D01*
X136542215Y-93330359D01*
X136457830Y-93754590D01*
X136134970Y-93754590D01*
X136050585Y-93330359D01*
X135810277Y-92970713D01*
X135450631Y-92730405D01*
X135026400Y-92646020D01*
X134602169Y-92730405D01*
X134242523Y-92970713D01*
X134002215Y-93330359D01*
X133917830Y-93754590D01*
X133594970Y-93754590D01*
X133510585Y-93330359D01*
X133270277Y-92970713D01*
X132910631Y-92730405D01*
X132486400Y-92646020D01*
X132062169Y-92730405D01*
X131702523Y-92970713D01*
X131462215Y-93330359D01*
X131377830Y-93754590D01*
X129465000Y-93754590D01*
X129465000Y-91806624D01*
X153296825Y-91806624D01*
X153449961Y-92177240D01*
X153733268Y-92461043D01*
X154103617Y-92614825D01*
X154504624Y-92615175D01*
X154759320Y-92509936D01*
X177312563Y-92509936D01*
X177378084Y-92709584D01*
X177841808Y-92835715D01*
X178318502Y-92774786D01*
X178475916Y-92709584D01*
X178541437Y-92509936D01*
X177927000Y-91895500D01*
X177312563Y-92509936D01*
X154759320Y-92509936D01*
X154875240Y-92462039D01*
X155159043Y-92178732D01*
X155312825Y-91808383D01*
X155313075Y-91521808D01*
X176698285Y-91521808D01*
X176759214Y-91998502D01*
X176824416Y-92155916D01*
X177024064Y-92221437D01*
X177638500Y-91607000D01*
X178215500Y-91607000D01*
X178829936Y-92221437D01*
X179029584Y-92155916D01*
X179155715Y-91692192D01*
X179094786Y-91215498D01*
X179029584Y-91058084D01*
X178829936Y-90992563D01*
X178215500Y-91607000D01*
X177638500Y-91607000D01*
X177024064Y-90992563D01*
X176824416Y-91058084D01*
X176698285Y-91521808D01*
X155313075Y-91521808D01*
X155313175Y-91407376D01*
X155160039Y-91036760D01*
X154876732Y-90752957D01*
X154758985Y-90704064D01*
X177312563Y-90704064D01*
X177927000Y-91318500D01*
X178541437Y-90704064D01*
X178475916Y-90504416D01*
X178012192Y-90378285D01*
X177535498Y-90439214D01*
X177378084Y-90504416D01*
X177312563Y-90704064D01*
X154758985Y-90704064D01*
X154506383Y-90599175D01*
X154105376Y-90598825D01*
X153734760Y-90751961D01*
X153450957Y-91035268D01*
X153297175Y-91405617D01*
X153296825Y-91806624D01*
X129465000Y-91806624D01*
X129465000Y-86134590D01*
X131377830Y-86134590D01*
X131377830Y-86890210D01*
X131462215Y-87314441D01*
X131702523Y-87674087D01*
X132062169Y-87914395D01*
X132486400Y-87998780D01*
X132910631Y-87914395D01*
X133270277Y-87674087D01*
X133510585Y-87314441D01*
X133594970Y-86890210D01*
X133594970Y-86134590D01*
X133917830Y-86134590D01*
X133917830Y-86890210D01*
X134002215Y-87314441D01*
X134242523Y-87674087D01*
X134602169Y-87914395D01*
X135026400Y-87998780D01*
X135450631Y-87914395D01*
X135810277Y-87674087D01*
X136050585Y-87314441D01*
X136134970Y-86890210D01*
X136134970Y-86134590D01*
X136457830Y-86134590D01*
X136457830Y-86890210D01*
X136542215Y-87314441D01*
X136782523Y-87674087D01*
X137142169Y-87914395D01*
X137566400Y-87998780D01*
X137990631Y-87914395D01*
X138350277Y-87674087D01*
X138590585Y-87314441D01*
X138674970Y-86890210D01*
X138674970Y-86134590D01*
X138997830Y-86134590D01*
X138997830Y-86890210D01*
X139082215Y-87314441D01*
X139322523Y-87674087D01*
X139682169Y-87914395D01*
X140106400Y-87998780D01*
X140530631Y-87914395D01*
X140890277Y-87674087D01*
X141130585Y-87314441D01*
X141214970Y-86890210D01*
X141214970Y-86134590D01*
X141537830Y-86134590D01*
X141537830Y-86890210D01*
X141622215Y-87314441D01*
X141862523Y-87674087D01*
X142222169Y-87914395D01*
X142646400Y-87998780D01*
X143070631Y-87914395D01*
X143430277Y-87674087D01*
X143670585Y-87314441D01*
X143754970Y-86890210D01*
X143754970Y-86134590D01*
X144077830Y-86134590D01*
X144077830Y-86890210D01*
X144162215Y-87314441D01*
X144402523Y-87674087D01*
X144762169Y-87914395D01*
X145186400Y-87998780D01*
X145610631Y-87914395D01*
X145970277Y-87674087D01*
X146210585Y-87314441D01*
X146294970Y-86890210D01*
X146294970Y-86134590D01*
X146617830Y-86134590D01*
X146617830Y-86890210D01*
X146702215Y-87314441D01*
X146942523Y-87674087D01*
X147302169Y-87914395D01*
X147726400Y-87998780D01*
X148150631Y-87914395D01*
X148510277Y-87674087D01*
X148750585Y-87314441D01*
X148834970Y-86890210D01*
X148834970Y-86134590D01*
X148750585Y-85710359D01*
X148551616Y-85412580D01*
X149150817Y-85412580D01*
X149150817Y-87612220D01*
X149175780Y-87744887D01*
X149254186Y-87866733D01*
X149373819Y-87948475D01*
X149515830Y-87977233D01*
X151016970Y-87977233D01*
X151149637Y-87952270D01*
X151271483Y-87873864D01*
X151353225Y-87754231D01*
X151381983Y-87612220D01*
X151381983Y-86109190D01*
X157514430Y-86109190D01*
X157514430Y-86864810D01*
X157598815Y-87289041D01*
X157839123Y-87648687D01*
X158198769Y-87888995D01*
X158623000Y-87973380D01*
X159047231Y-87888995D01*
X159406877Y-87648687D01*
X159647185Y-87289041D01*
X159731570Y-86864810D01*
X159731570Y-86109190D01*
X160054430Y-86109190D01*
X160054430Y-86864810D01*
X160138815Y-87289041D01*
X160379123Y-87648687D01*
X160738769Y-87888995D01*
X161163000Y-87973380D01*
X161587231Y-87888995D01*
X161946877Y-87648687D01*
X162187185Y-87289041D01*
X162271570Y-86864810D01*
X162271570Y-86109190D01*
X162594430Y-86109190D01*
X162594430Y-86864810D01*
X162678815Y-87289041D01*
X162919123Y-87648687D01*
X163278769Y-87888995D01*
X163703000Y-87973380D01*
X164127231Y-87888995D01*
X164486877Y-87648687D01*
X164727185Y-87289041D01*
X164811570Y-86864810D01*
X164811570Y-86109190D01*
X165134430Y-86109190D01*
X165134430Y-86864810D01*
X165218815Y-87289041D01*
X165459123Y-87648687D01*
X165818769Y-87888995D01*
X166243000Y-87973380D01*
X166667231Y-87888995D01*
X167026877Y-87648687D01*
X167267185Y-87289041D01*
X167351570Y-86864810D01*
X167351570Y-86109190D01*
X167674430Y-86109190D01*
X167674430Y-86864810D01*
X167758815Y-87289041D01*
X167999123Y-87648687D01*
X168358769Y-87888995D01*
X168783000Y-87973380D01*
X169207231Y-87888995D01*
X169566877Y-87648687D01*
X169807185Y-87289041D01*
X169891570Y-86864810D01*
X169891570Y-86109190D01*
X170214430Y-86109190D01*
X170214430Y-86864810D01*
X170298815Y-87289041D01*
X170539123Y-87648687D01*
X170898769Y-87888995D01*
X171323000Y-87973380D01*
X171747231Y-87888995D01*
X172106877Y-87648687D01*
X172347185Y-87289041D01*
X172431570Y-86864810D01*
X172431570Y-86109190D01*
X172347185Y-85684959D01*
X172148216Y-85387180D01*
X172747417Y-85387180D01*
X172747417Y-87586820D01*
X172772380Y-87719487D01*
X172850786Y-87841333D01*
X172970419Y-87923075D01*
X173112430Y-87951833D01*
X174613570Y-87951833D01*
X174746237Y-87926870D01*
X174868083Y-87848464D01*
X174949825Y-87728831D01*
X174978583Y-87586820D01*
X174978583Y-85387180D01*
X174953620Y-85254513D01*
X174875214Y-85132667D01*
X174755581Y-85050925D01*
X174613570Y-85022167D01*
X173112430Y-85022167D01*
X172979763Y-85047130D01*
X172857917Y-85125536D01*
X172776175Y-85245169D01*
X172747417Y-85387180D01*
X172148216Y-85387180D01*
X172106877Y-85325313D01*
X171747231Y-85085005D01*
X171323000Y-85000620D01*
X170898769Y-85085005D01*
X170539123Y-85325313D01*
X170298815Y-85684959D01*
X170214430Y-86109190D01*
X169891570Y-86109190D01*
X169807185Y-85684959D01*
X169566877Y-85325313D01*
X169207231Y-85085005D01*
X168783000Y-85000620D01*
X168358769Y-85085005D01*
X167999123Y-85325313D01*
X167758815Y-85684959D01*
X167674430Y-86109190D01*
X167351570Y-86109190D01*
X167267185Y-85684959D01*
X167026877Y-85325313D01*
X166667231Y-85085005D01*
X166243000Y-85000620D01*
X165818769Y-85085005D01*
X165459123Y-85325313D01*
X165218815Y-85684959D01*
X165134430Y-86109190D01*
X164811570Y-86109190D01*
X164727185Y-85684959D01*
X164486877Y-85325313D01*
X164127231Y-85085005D01*
X163703000Y-85000620D01*
X163278769Y-85085005D01*
X162919123Y-85325313D01*
X162678815Y-85684959D01*
X162594430Y-86109190D01*
X162271570Y-86109190D01*
X162187185Y-85684959D01*
X161946877Y-85325313D01*
X161587231Y-85085005D01*
X161163000Y-85000620D01*
X160738769Y-85085005D01*
X160379123Y-85325313D01*
X160138815Y-85684959D01*
X160054430Y-86109190D01*
X159731570Y-86109190D01*
X159647185Y-85684959D01*
X159406877Y-85325313D01*
X159047231Y-85085005D01*
X158623000Y-85000620D01*
X158198769Y-85085005D01*
X157839123Y-85325313D01*
X157598815Y-85684959D01*
X157514430Y-86109190D01*
X151381983Y-86109190D01*
X151381983Y-85412580D01*
X151357020Y-85279913D01*
X151278614Y-85158067D01*
X151158981Y-85076325D01*
X151016970Y-85047567D01*
X149515830Y-85047567D01*
X149383163Y-85072530D01*
X149261317Y-85150936D01*
X149179575Y-85270569D01*
X149150817Y-85412580D01*
X148551616Y-85412580D01*
X148510277Y-85350713D01*
X148150631Y-85110405D01*
X147726400Y-85026020D01*
X147302169Y-85110405D01*
X146942523Y-85350713D01*
X146702215Y-85710359D01*
X146617830Y-86134590D01*
X146294970Y-86134590D01*
X146210585Y-85710359D01*
X145970277Y-85350713D01*
X145610631Y-85110405D01*
X145186400Y-85026020D01*
X144762169Y-85110405D01*
X144402523Y-85350713D01*
X144162215Y-85710359D01*
X144077830Y-86134590D01*
X143754970Y-86134590D01*
X143670585Y-85710359D01*
X143430277Y-85350713D01*
X143070631Y-85110405D01*
X142646400Y-85026020D01*
X142222169Y-85110405D01*
X141862523Y-85350713D01*
X141622215Y-85710359D01*
X141537830Y-86134590D01*
X141214970Y-86134590D01*
X141130585Y-85710359D01*
X140890277Y-85350713D01*
X140530631Y-85110405D01*
X140106400Y-85026020D01*
X139682169Y-85110405D01*
X139322523Y-85350713D01*
X139082215Y-85710359D01*
X138997830Y-86134590D01*
X138674970Y-86134590D01*
X138590585Y-85710359D01*
X138350277Y-85350713D01*
X137990631Y-85110405D01*
X137566400Y-85026020D01*
X137142169Y-85110405D01*
X136782523Y-85350713D01*
X136542215Y-85710359D01*
X136457830Y-86134590D01*
X136134970Y-86134590D01*
X136050585Y-85710359D01*
X135810277Y-85350713D01*
X135450631Y-85110405D01*
X135026400Y-85026020D01*
X134602169Y-85110405D01*
X134242523Y-85350713D01*
X134002215Y-85710359D01*
X133917830Y-86134590D01*
X133594970Y-86134590D01*
X133510585Y-85710359D01*
X133270277Y-85350713D01*
X132910631Y-85110405D01*
X132486400Y-85026020D01*
X132062169Y-85110405D01*
X131702523Y-85350713D01*
X131462215Y-85710359D01*
X131377830Y-86134590D01*
X129465000Y-86134590D01*
X129465000Y-83400459D01*
X129742189Y-83678133D01*
X130167649Y-83854799D01*
X130628330Y-83855201D01*
X131054098Y-83679277D01*
X131380133Y-83353811D01*
X131556799Y-82928351D01*
X131557201Y-82467670D01*
X131381277Y-82041902D01*
X131055811Y-81715867D01*
X131048906Y-81713000D01*
X132288072Y-81713000D01*
X132283902Y-81714723D01*
M02*
