G04 #@! TF.FileFunction,Soldermask,Top*
%FSLAX46Y46*%
G04 Gerber Fmt 4.6, Leading zero omitted, Abs format (unit mm)*
G04 Created by KiCad (PCBNEW 4.0.2-stable) date 5/20/2016 6:39:27 AM*
%MOMM*%
G01*
G04 APERTURE LIST*
%ADD10C,0.100000*%
%ADD11R,2.100000X2.100000*%
%ADD12C,2.000000*%
%ADD13R,1.901140X2.599640*%
%ADD14O,1.901140X2.599640*%
%ADD15R,1.700000X1.700000*%
%ADD16C,1.700000*%
G04 APERTURE END LIST*
D10*
D11*
X130399000Y-97937000D03*
D12*
X132939000Y-97937000D03*
X135479000Y-97937000D03*
X138019000Y-97937000D03*
X140559000Y-97937000D03*
X143099000Y-97937000D03*
X145639000Y-97937000D03*
X148179000Y-97937000D03*
X158339000Y-97937000D03*
X160879000Y-97937000D03*
X163419000Y-97937000D03*
X165959000Y-97937000D03*
X168499000Y-97937000D03*
X171039000Y-97937000D03*
X173579000Y-97937000D03*
X176119000Y-97937000D03*
X178659000Y-97937000D03*
X178659000Y-82697000D03*
X176119000Y-82697000D03*
X173579000Y-82697000D03*
X171039000Y-82697000D03*
X168499000Y-82697000D03*
X165959000Y-82697000D03*
X163419000Y-82697000D03*
X160879000Y-82697000D03*
X158339000Y-82697000D03*
X148179000Y-82697000D03*
X145639000Y-82697000D03*
X143099000Y-82697000D03*
X140559000Y-82697000D03*
X138019000Y-82697000D03*
X135479000Y-82697000D03*
X132939000Y-82697000D03*
X130399000Y-82697000D03*
D13*
X150266400Y-86512400D03*
D14*
X147726400Y-86512400D03*
X145186400Y-86512400D03*
X142646400Y-86512400D03*
X140106400Y-86512400D03*
X137566400Y-86512400D03*
X135026400Y-86512400D03*
X132486400Y-86512400D03*
X132486400Y-94132400D03*
X135026400Y-94132400D03*
X137566400Y-94132400D03*
X140106400Y-94132400D03*
X142646400Y-94132400D03*
X145186400Y-94132400D03*
X147726400Y-94132400D03*
X150266400Y-94132400D03*
D13*
X173863000Y-86487000D03*
D14*
X171323000Y-86487000D03*
X168783000Y-86487000D03*
X166243000Y-86487000D03*
X163703000Y-86487000D03*
X161163000Y-86487000D03*
X158623000Y-86487000D03*
X158623000Y-94107000D03*
X161163000Y-94107000D03*
X163703000Y-94107000D03*
X166243000Y-94107000D03*
X168783000Y-94107000D03*
X171323000Y-94107000D03*
X173863000Y-94107000D03*
D15*
X177927000Y-94107000D03*
D16*
X177927000Y-91607000D03*
D15*
X154305000Y-94107000D03*
D16*
X154305000Y-91607000D03*
M02*
