M48
INCH,TZ
T1C0.016
T2C0.031
T3C0.032
%
G90
G05
T1
X61350Y-37500
T2
X51338Y-32558
X51338Y-38558
X52338Y-32558
X52338Y-38558
X53338Y-32558
X53338Y-38558
X54338Y-32558
X54338Y-38558
X55338Y-32558
X55338Y-38558
X56338Y-32558
X56338Y-38558
X57338Y-32558
X57338Y-38558
X58338Y-32558
X58338Y-38558
X60750Y-37050
X62338Y-32558
X62338Y-38558
X63338Y-32558
X63338Y-38558
X64338Y-32558
X64338Y-38558
X65338Y-32558
X65338Y-38558
X66338Y-32558
X66338Y-38558
X67338Y-32558
X67338Y-38558
X68338Y-32558
X68338Y-38558
X69338Y-32558
X69338Y-38558
X70050Y-37050
X70338Y-32558
X70338Y-38558
T3
X52160Y-34060
X52160Y-37060
X53160Y-34060
X53160Y-37060
X54160Y-34060
X54160Y-37060
X55160Y-34060
X55160Y-37060
X56160Y-34060
X56160Y-37060
X57160Y-34060
X57160Y-37060
X58160Y-34060
X58160Y-37060
X59160Y-34060
X59160Y-37060
X60750Y-36066
X62450Y-34050
X62450Y-37050
X63450Y-34050
X63450Y-37050
X64450Y-34050
X64450Y-37050
X65450Y-34050
X65450Y-37050
X66450Y-34050
X66450Y-37050
X67450Y-34050
X67450Y-37050
X68450Y-34050
X68450Y-37050
X70050Y-36066
T0
M30
