G04 #@! TF.FileFunction,Legend,Bot*
%FSLAX46Y46*%
G04 Gerber Fmt 4.6, Leading zero omitted, Abs format (unit mm)*
G04 Created by KiCad (PCBNEW 4.0.2-stable) date 5/20/2016 6:39:27 AM*
%MOMM*%
G01*
G04 APERTURE LIST*
%ADD10C,0.100000*%
%ADD11R,2.100000X2.100000*%
%ADD12C,2.000000*%
%ADD13R,1.901140X2.599640*%
%ADD14O,1.901140X2.599640*%
%ADD15R,1.700000X1.700000*%
%ADD16C,1.700000*%
G04 APERTURE END LIST*
D10*
X150817333Y-90166000D02*
X150850667Y-90199333D01*
X150950667Y-90232667D01*
X151017333Y-90232667D01*
X151117333Y-90199333D01*
X151184000Y-90132667D01*
X151217333Y-90066000D01*
X151250667Y-89932667D01*
X151250667Y-89832667D01*
X151217333Y-89699333D01*
X151184000Y-89632667D01*
X151117333Y-89566000D01*
X151017333Y-89532667D01*
X150950667Y-89532667D01*
X150850667Y-89566000D01*
X150817333Y-89599333D01*
X150550667Y-90199333D02*
X150450667Y-90232667D01*
X150284000Y-90232667D01*
X150217333Y-90199333D01*
X150184000Y-90166000D01*
X150150667Y-90099333D01*
X150150667Y-90032667D01*
X150184000Y-89966000D01*
X150217333Y-89932667D01*
X150284000Y-89899333D01*
X150417333Y-89866000D01*
X150484000Y-89832667D01*
X150517333Y-89799333D01*
X150550667Y-89732667D01*
X150550667Y-89666000D01*
X150517333Y-89599333D01*
X150484000Y-89566000D01*
X150417333Y-89532667D01*
X150250667Y-89532667D01*
X150150667Y-89566000D01*
X149750666Y-89832667D02*
X149817333Y-89799333D01*
X149850666Y-89766000D01*
X149884000Y-89699333D01*
X149884000Y-89666000D01*
X149850666Y-89599333D01*
X149817333Y-89566000D01*
X149750666Y-89532667D01*
X149617333Y-89532667D01*
X149550666Y-89566000D01*
X149517333Y-89599333D01*
X149484000Y-89666000D01*
X149484000Y-89699333D01*
X149517333Y-89766000D01*
X149550666Y-89799333D01*
X149617333Y-89832667D01*
X149750666Y-89832667D01*
X149817333Y-89866000D01*
X149850666Y-89899333D01*
X149884000Y-89966000D01*
X149884000Y-90099333D01*
X149850666Y-90166000D01*
X149817333Y-90199333D01*
X149750666Y-90232667D01*
X149617333Y-90232667D01*
X149550666Y-90199333D01*
X149517333Y-90166000D01*
X149484000Y-90099333D01*
X149484000Y-89966000D01*
X149517333Y-89899333D01*
X149550666Y-89866000D01*
X149617333Y-89832667D01*
X149183999Y-90166000D02*
X149150666Y-90199333D01*
X149183999Y-90232667D01*
X149217333Y-90199333D01*
X149183999Y-90166000D01*
X149183999Y-90232667D01*
X149183999Y-89799333D02*
X149150666Y-89832667D01*
X149183999Y-89866000D01*
X149217333Y-89832667D01*
X149183999Y-89799333D01*
X149183999Y-89866000D01*
X148350667Y-90199333D02*
X148250667Y-90232667D01*
X148084000Y-90232667D01*
X148017333Y-90199333D01*
X147984000Y-90166000D01*
X147950667Y-90099333D01*
X147950667Y-90032667D01*
X147984000Y-89966000D01*
X148017333Y-89932667D01*
X148084000Y-89899333D01*
X148217333Y-89866000D01*
X148284000Y-89832667D01*
X148317333Y-89799333D01*
X148350667Y-89732667D01*
X148350667Y-89666000D01*
X148317333Y-89599333D01*
X148284000Y-89566000D01*
X148217333Y-89532667D01*
X148050667Y-89532667D01*
X147950667Y-89566000D01*
X148150667Y-89432667D02*
X148150667Y-90332667D01*
X147550666Y-89832667D02*
X147617333Y-89799333D01*
X147650666Y-89766000D01*
X147684000Y-89699333D01*
X147684000Y-89666000D01*
X147650666Y-89599333D01*
X147617333Y-89566000D01*
X147550666Y-89532667D01*
X147417333Y-89532667D01*
X147350666Y-89566000D01*
X147317333Y-89599333D01*
X147284000Y-89666000D01*
X147284000Y-89699333D01*
X147317333Y-89766000D01*
X147350666Y-89799333D01*
X147417333Y-89832667D01*
X147550666Y-89832667D01*
X147617333Y-89866000D01*
X147650666Y-89899333D01*
X147684000Y-89966000D01*
X147684000Y-90099333D01*
X147650666Y-90166000D01*
X147617333Y-90199333D01*
X147550666Y-90232667D01*
X147417333Y-90232667D01*
X147350666Y-90199333D01*
X147317333Y-90166000D01*
X147284000Y-90099333D01*
X147284000Y-89966000D01*
X147317333Y-89899333D01*
X147350666Y-89866000D01*
X147417333Y-89832667D01*
X147050666Y-89532667D02*
X146583999Y-89532667D01*
X146883999Y-90232667D01*
X146183999Y-89532667D02*
X146117332Y-89532667D01*
X146050666Y-89566000D01*
X146017332Y-89599333D01*
X145983999Y-89666000D01*
X145950666Y-89799333D01*
X145950666Y-89966000D01*
X145983999Y-90099333D01*
X146017332Y-90166000D01*
X146050666Y-90199333D01*
X146117332Y-90232667D01*
X146183999Y-90232667D01*
X146250666Y-90199333D01*
X146283999Y-90166000D01*
X146317332Y-90099333D01*
X146350666Y-89966000D01*
X146350666Y-89799333D01*
X146317332Y-89666000D01*
X146283999Y-89599333D01*
X146250666Y-89566000D01*
X146183999Y-89532667D01*
X145517332Y-89532667D02*
X145450665Y-89532667D01*
X145383999Y-89566000D01*
X145350665Y-89599333D01*
X145317332Y-89666000D01*
X145283999Y-89799333D01*
X145283999Y-89966000D01*
X145317332Y-90099333D01*
X145350665Y-90166000D01*
X145383999Y-90199333D01*
X145450665Y-90232667D01*
X145517332Y-90232667D01*
X145583999Y-90199333D01*
X145617332Y-90166000D01*
X145650665Y-90099333D01*
X145683999Y-89966000D01*
X145683999Y-89799333D01*
X145650665Y-89666000D01*
X145617332Y-89599333D01*
X145583999Y-89566000D01*
X145517332Y-89532667D01*
X150817333Y-89150000D02*
X150850667Y-89183333D01*
X150950667Y-89216667D01*
X151017333Y-89216667D01*
X151117333Y-89183333D01*
X151184000Y-89116667D01*
X151217333Y-89050000D01*
X151250667Y-88916667D01*
X151250667Y-88816667D01*
X151217333Y-88683333D01*
X151184000Y-88616667D01*
X151117333Y-88550000D01*
X151017333Y-88516667D01*
X150950667Y-88516667D01*
X150850667Y-88550000D01*
X150817333Y-88583333D01*
X150550667Y-89183333D02*
X150450667Y-89216667D01*
X150284000Y-89216667D01*
X150217333Y-89183333D01*
X150184000Y-89150000D01*
X150150667Y-89083333D01*
X150150667Y-89016667D01*
X150184000Y-88950000D01*
X150217333Y-88916667D01*
X150284000Y-88883333D01*
X150417333Y-88850000D01*
X150484000Y-88816667D01*
X150517333Y-88783333D01*
X150550667Y-88716667D01*
X150550667Y-88650000D01*
X150517333Y-88583333D01*
X150484000Y-88550000D01*
X150417333Y-88516667D01*
X150250667Y-88516667D01*
X150150667Y-88550000D01*
X149917333Y-88516667D02*
X149450666Y-88516667D01*
X149750666Y-89216667D01*
X149183999Y-89150000D02*
X149150666Y-89183333D01*
X149183999Y-89216667D01*
X149217333Y-89183333D01*
X149183999Y-89150000D01*
X149183999Y-89216667D01*
X149183999Y-88783333D02*
X149150666Y-88816667D01*
X149183999Y-88850000D01*
X149217333Y-88816667D01*
X149183999Y-88783333D01*
X149183999Y-88850000D01*
X148350667Y-89183333D02*
X148250667Y-89216667D01*
X148084000Y-89216667D01*
X148017333Y-89183333D01*
X147984000Y-89150000D01*
X147950667Y-89083333D01*
X147950667Y-89016667D01*
X147984000Y-88950000D01*
X148017333Y-88916667D01*
X148084000Y-88883333D01*
X148217333Y-88850000D01*
X148284000Y-88816667D01*
X148317333Y-88783333D01*
X148350667Y-88716667D01*
X148350667Y-88650000D01*
X148317333Y-88583333D01*
X148284000Y-88550000D01*
X148217333Y-88516667D01*
X148050667Y-88516667D01*
X147950667Y-88550000D01*
X148150667Y-88416667D02*
X148150667Y-89316667D01*
X147550666Y-88816667D02*
X147617333Y-88783333D01*
X147650666Y-88750000D01*
X147684000Y-88683333D01*
X147684000Y-88650000D01*
X147650666Y-88583333D01*
X147617333Y-88550000D01*
X147550666Y-88516667D01*
X147417333Y-88516667D01*
X147350666Y-88550000D01*
X147317333Y-88583333D01*
X147284000Y-88650000D01*
X147284000Y-88683333D01*
X147317333Y-88750000D01*
X147350666Y-88783333D01*
X147417333Y-88816667D01*
X147550666Y-88816667D01*
X147617333Y-88850000D01*
X147650666Y-88883333D01*
X147684000Y-88950000D01*
X147684000Y-89083333D01*
X147650666Y-89150000D01*
X147617333Y-89183333D01*
X147550666Y-89216667D01*
X147417333Y-89216667D01*
X147350666Y-89183333D01*
X147317333Y-89150000D01*
X147284000Y-89083333D01*
X147284000Y-88950000D01*
X147317333Y-88883333D01*
X147350666Y-88850000D01*
X147417333Y-88816667D01*
X146683999Y-88516667D02*
X146817333Y-88516667D01*
X146883999Y-88550000D01*
X146917333Y-88583333D01*
X146983999Y-88683333D01*
X147017333Y-88816667D01*
X147017333Y-89083333D01*
X146983999Y-89150000D01*
X146950666Y-89183333D01*
X146883999Y-89216667D01*
X146750666Y-89216667D01*
X146683999Y-89183333D01*
X146650666Y-89150000D01*
X146617333Y-89083333D01*
X146617333Y-88916667D01*
X146650666Y-88850000D01*
X146683999Y-88816667D01*
X146750666Y-88783333D01*
X146883999Y-88783333D01*
X146950666Y-88816667D01*
X146983999Y-88850000D01*
X147017333Y-88916667D01*
X146183999Y-88516667D02*
X146117332Y-88516667D01*
X146050666Y-88550000D01*
X146017332Y-88583333D01*
X145983999Y-88650000D01*
X145950666Y-88783333D01*
X145950666Y-88950000D01*
X145983999Y-89083333D01*
X146017332Y-89150000D01*
X146050666Y-89183333D01*
X146117332Y-89216667D01*
X146183999Y-89216667D01*
X146250666Y-89183333D01*
X146283999Y-89150000D01*
X146317332Y-89083333D01*
X146350666Y-88950000D01*
X146350666Y-88783333D01*
X146317332Y-88650000D01*
X146283999Y-88583333D01*
X146250666Y-88550000D01*
X146183999Y-88516667D01*
X145517332Y-88516667D02*
X145450665Y-88516667D01*
X145383999Y-88550000D01*
X145350665Y-88583333D01*
X145317332Y-88650000D01*
X145283999Y-88783333D01*
X145283999Y-88950000D01*
X145317332Y-89083333D01*
X145350665Y-89150000D01*
X145383999Y-89183333D01*
X145450665Y-89216667D01*
X145517332Y-89216667D01*
X145583999Y-89183333D01*
X145617332Y-89150000D01*
X145650665Y-89083333D01*
X145683999Y-88950000D01*
X145683999Y-88783333D01*
X145650665Y-88650000D01*
X145617332Y-88583333D01*
X145583999Y-88550000D01*
X145517332Y-88516667D01*
X162755333Y-92264667D02*
X162988667Y-91931333D01*
X163155333Y-92264667D02*
X163155333Y-91564667D01*
X162888667Y-91564667D01*
X162822000Y-91598000D01*
X162788667Y-91631333D01*
X162755333Y-91698000D01*
X162755333Y-91798000D01*
X162788667Y-91864667D01*
X162822000Y-91898000D01*
X162888667Y-91931333D01*
X163155333Y-91931333D01*
X162555333Y-91564667D02*
X162155333Y-91564667D01*
X162355333Y-92264667D02*
X162355333Y-91564667D01*
X161522000Y-92198000D02*
X161555334Y-92231333D01*
X161655334Y-92264667D01*
X161722000Y-92264667D01*
X161822000Y-92231333D01*
X161888667Y-92164667D01*
X161922000Y-92098000D01*
X161955334Y-91964667D01*
X161955334Y-91864667D01*
X161922000Y-91731333D01*
X161888667Y-91664667D01*
X161822000Y-91598000D01*
X161722000Y-91564667D01*
X161655334Y-91564667D01*
X161555334Y-91598000D01*
X161522000Y-91631333D01*
X161222000Y-92198000D02*
X161188667Y-92231333D01*
X161222000Y-92264667D01*
X161255334Y-92231333D01*
X161222000Y-92198000D01*
X161222000Y-92264667D01*
X161222000Y-91831333D02*
X161188667Y-91864667D01*
X161222000Y-91898000D01*
X161255334Y-91864667D01*
X161222000Y-91831333D01*
X161222000Y-91898000D01*
X160388668Y-92231333D02*
X160288668Y-92264667D01*
X160122001Y-92264667D01*
X160055334Y-92231333D01*
X160022001Y-92198000D01*
X159988668Y-92131333D01*
X159988668Y-92064667D01*
X160022001Y-91998000D01*
X160055334Y-91964667D01*
X160122001Y-91931333D01*
X160255334Y-91898000D01*
X160322001Y-91864667D01*
X160355334Y-91831333D01*
X160388668Y-91764667D01*
X160388668Y-91698000D01*
X160355334Y-91631333D01*
X160322001Y-91598000D01*
X160255334Y-91564667D01*
X160088668Y-91564667D01*
X159988668Y-91598000D01*
X160188668Y-91464667D02*
X160188668Y-92364667D01*
X159588667Y-91864667D02*
X159655334Y-91831333D01*
X159688667Y-91798000D01*
X159722001Y-91731333D01*
X159722001Y-91698000D01*
X159688667Y-91631333D01*
X159655334Y-91598000D01*
X159588667Y-91564667D01*
X159455334Y-91564667D01*
X159388667Y-91598000D01*
X159355334Y-91631333D01*
X159322001Y-91698000D01*
X159322001Y-91731333D01*
X159355334Y-91798000D01*
X159388667Y-91831333D01*
X159455334Y-91864667D01*
X159588667Y-91864667D01*
X159655334Y-91898000D01*
X159688667Y-91931333D01*
X159722001Y-91998000D01*
X159722001Y-92131333D01*
X159688667Y-92198000D01*
X159655334Y-92231333D01*
X159588667Y-92264667D01*
X159455334Y-92264667D01*
X159388667Y-92231333D01*
X159355334Y-92198000D01*
X159322001Y-92131333D01*
X159322001Y-91998000D01*
X159355334Y-91931333D01*
X159388667Y-91898000D01*
X159455334Y-91864667D01*
X158688667Y-91564667D02*
X159022000Y-91564667D01*
X159055334Y-91898000D01*
X159022000Y-91864667D01*
X158955334Y-91831333D01*
X158788667Y-91831333D01*
X158722000Y-91864667D01*
X158688667Y-91898000D01*
X158655334Y-91964667D01*
X158655334Y-92131333D01*
X158688667Y-92198000D01*
X158722000Y-92231333D01*
X158788667Y-92264667D01*
X158955334Y-92264667D01*
X159022000Y-92231333D01*
X159055334Y-92198000D01*
X158222000Y-91564667D02*
X158155333Y-91564667D01*
X158088667Y-91598000D01*
X158055333Y-91631333D01*
X158022000Y-91698000D01*
X157988667Y-91831333D01*
X157988667Y-91998000D01*
X158022000Y-92131333D01*
X158055333Y-92198000D01*
X158088667Y-92231333D01*
X158155333Y-92264667D01*
X158222000Y-92264667D01*
X158288667Y-92231333D01*
X158322000Y-92198000D01*
X158355333Y-92131333D01*
X158388667Y-91998000D01*
X158388667Y-91831333D01*
X158355333Y-91698000D01*
X158322000Y-91631333D01*
X158288667Y-91598000D01*
X158222000Y-91564667D01*
X157555333Y-91564667D02*
X157488666Y-91564667D01*
X157422000Y-91598000D01*
X157388666Y-91631333D01*
X157355333Y-91698000D01*
X157322000Y-91831333D01*
X157322000Y-91998000D01*
X157355333Y-92131333D01*
X157388666Y-92198000D01*
X157422000Y-92231333D01*
X157488666Y-92264667D01*
X157555333Y-92264667D01*
X157622000Y-92231333D01*
X157655333Y-92198000D01*
X157688666Y-92131333D01*
X157722000Y-91998000D01*
X157722000Y-91831333D01*
X157688666Y-91698000D01*
X157655333Y-91631333D01*
X157622000Y-91598000D01*
X157555333Y-91564667D01*
X163188667Y-91215333D02*
X163088667Y-91248667D01*
X162922000Y-91248667D01*
X162855333Y-91215333D01*
X162822000Y-91182000D01*
X162788667Y-91115333D01*
X162788667Y-91048667D01*
X162822000Y-90982000D01*
X162855333Y-90948667D01*
X162922000Y-90915333D01*
X163055333Y-90882000D01*
X163122000Y-90848667D01*
X163155333Y-90815333D01*
X163188667Y-90748667D01*
X163188667Y-90682000D01*
X163155333Y-90615333D01*
X163122000Y-90582000D01*
X163055333Y-90548667D01*
X162888667Y-90548667D01*
X162788667Y-90582000D01*
X162488666Y-91248667D02*
X162488666Y-90548667D01*
X162155333Y-91248667D02*
X162155333Y-90548667D01*
X161988667Y-90548667D01*
X161888667Y-90582000D01*
X161822000Y-90648667D01*
X161788667Y-90715333D01*
X161755333Y-90848667D01*
X161755333Y-90948667D01*
X161788667Y-91082000D01*
X161822000Y-91148667D01*
X161888667Y-91215333D01*
X161988667Y-91248667D01*
X162155333Y-91248667D01*
X161455333Y-91182000D02*
X161422000Y-91215333D01*
X161455333Y-91248667D01*
X161488667Y-91215333D01*
X161455333Y-91182000D01*
X161455333Y-91248667D01*
X161455333Y-90815333D02*
X161422000Y-90848667D01*
X161455333Y-90882000D01*
X161488667Y-90848667D01*
X161455333Y-90815333D01*
X161455333Y-90882000D01*
X160622001Y-91215333D02*
X160522001Y-91248667D01*
X160355334Y-91248667D01*
X160288667Y-91215333D01*
X160255334Y-91182000D01*
X160222001Y-91115333D01*
X160222001Y-91048667D01*
X160255334Y-90982000D01*
X160288667Y-90948667D01*
X160355334Y-90915333D01*
X160488667Y-90882000D01*
X160555334Y-90848667D01*
X160588667Y-90815333D01*
X160622001Y-90748667D01*
X160622001Y-90682000D01*
X160588667Y-90615333D01*
X160555334Y-90582000D01*
X160488667Y-90548667D01*
X160322001Y-90548667D01*
X160222001Y-90582000D01*
X160422001Y-90448667D02*
X160422001Y-91348667D01*
X159822000Y-90848667D02*
X159888667Y-90815333D01*
X159922000Y-90782000D01*
X159955334Y-90715333D01*
X159955334Y-90682000D01*
X159922000Y-90615333D01*
X159888667Y-90582000D01*
X159822000Y-90548667D01*
X159688667Y-90548667D01*
X159622000Y-90582000D01*
X159588667Y-90615333D01*
X159555334Y-90682000D01*
X159555334Y-90715333D01*
X159588667Y-90782000D01*
X159622000Y-90815333D01*
X159688667Y-90848667D01*
X159822000Y-90848667D01*
X159888667Y-90882000D01*
X159922000Y-90915333D01*
X159955334Y-90982000D01*
X159955334Y-91115333D01*
X159922000Y-91182000D01*
X159888667Y-91215333D01*
X159822000Y-91248667D01*
X159688667Y-91248667D01*
X159622000Y-91215333D01*
X159588667Y-91182000D01*
X159555334Y-91115333D01*
X159555334Y-90982000D01*
X159588667Y-90915333D01*
X159622000Y-90882000D01*
X159688667Y-90848667D01*
X158955333Y-90782000D02*
X158955333Y-91248667D01*
X159122000Y-90515333D02*
X159288667Y-91015333D01*
X158855333Y-91015333D01*
X158455333Y-90548667D02*
X158388666Y-90548667D01*
X158322000Y-90582000D01*
X158288666Y-90615333D01*
X158255333Y-90682000D01*
X158222000Y-90815333D01*
X158222000Y-90982000D01*
X158255333Y-91115333D01*
X158288666Y-91182000D01*
X158322000Y-91215333D01*
X158388666Y-91248667D01*
X158455333Y-91248667D01*
X158522000Y-91215333D01*
X158555333Y-91182000D01*
X158588666Y-91115333D01*
X158622000Y-90982000D01*
X158622000Y-90815333D01*
X158588666Y-90682000D01*
X158555333Y-90615333D01*
X158522000Y-90582000D01*
X158455333Y-90548667D01*
X157788666Y-90548667D02*
X157721999Y-90548667D01*
X157655333Y-90582000D01*
X157621999Y-90615333D01*
X157588666Y-90682000D01*
X157555333Y-90815333D01*
X157555333Y-90982000D01*
X157588666Y-91115333D01*
X157621999Y-91182000D01*
X157655333Y-91215333D01*
X157721999Y-91248667D01*
X157788666Y-91248667D01*
X157855333Y-91215333D01*
X157888666Y-91182000D01*
X157921999Y-91115333D01*
X157955333Y-90982000D01*
X157955333Y-90815333D01*
X157921999Y-90682000D01*
X157888666Y-90615333D01*
X157855333Y-90582000D01*
X157788666Y-90548667D01*
X163188667Y-90032667D02*
X162855333Y-90032667D01*
X163255333Y-90232667D02*
X163022000Y-89532667D01*
X162788667Y-90232667D01*
X162155333Y-90166000D02*
X162188667Y-90199333D01*
X162288667Y-90232667D01*
X162355333Y-90232667D01*
X162455333Y-90199333D01*
X162522000Y-90132667D01*
X162555333Y-90066000D01*
X162588667Y-89932667D01*
X162588667Y-89832667D01*
X162555333Y-89699333D01*
X162522000Y-89632667D01*
X162455333Y-89566000D01*
X162355333Y-89532667D01*
X162288667Y-89532667D01*
X162188667Y-89566000D01*
X162155333Y-89599333D01*
X161855333Y-90232667D02*
X161855333Y-89532667D01*
X161555334Y-90032667D02*
X161222000Y-90032667D01*
X161622000Y-90232667D02*
X161388667Y-89532667D01*
X161155334Y-90232667D01*
X160955334Y-89599333D02*
X160922000Y-89566000D01*
X160855334Y-89532667D01*
X160688667Y-89532667D01*
X160622000Y-89566000D01*
X160588667Y-89599333D01*
X160555334Y-89666000D01*
X160555334Y-89732667D01*
X160588667Y-89832667D01*
X160988667Y-90232667D01*
X160555334Y-90232667D01*
X160255333Y-90166000D02*
X160222000Y-90199333D01*
X160255333Y-90232667D01*
X160288667Y-90199333D01*
X160255333Y-90166000D01*
X160255333Y-90232667D01*
X160255333Y-89799333D02*
X160222000Y-89832667D01*
X160255333Y-89866000D01*
X160288667Y-89832667D01*
X160255333Y-89799333D01*
X160255333Y-89866000D01*
X159422001Y-90199333D02*
X159322001Y-90232667D01*
X159155334Y-90232667D01*
X159088667Y-90199333D01*
X159055334Y-90166000D01*
X159022001Y-90099333D01*
X159022001Y-90032667D01*
X159055334Y-89966000D01*
X159088667Y-89932667D01*
X159155334Y-89899333D01*
X159288667Y-89866000D01*
X159355334Y-89832667D01*
X159388667Y-89799333D01*
X159422001Y-89732667D01*
X159422001Y-89666000D01*
X159388667Y-89599333D01*
X159355334Y-89566000D01*
X159288667Y-89532667D01*
X159122001Y-89532667D01*
X159022001Y-89566000D01*
X159222001Y-89432667D02*
X159222001Y-90332667D01*
X158622000Y-89832667D02*
X158688667Y-89799333D01*
X158722000Y-89766000D01*
X158755334Y-89699333D01*
X158755334Y-89666000D01*
X158722000Y-89599333D01*
X158688667Y-89566000D01*
X158622000Y-89532667D01*
X158488667Y-89532667D01*
X158422000Y-89566000D01*
X158388667Y-89599333D01*
X158355334Y-89666000D01*
X158355334Y-89699333D01*
X158388667Y-89766000D01*
X158422000Y-89799333D01*
X158488667Y-89832667D01*
X158622000Y-89832667D01*
X158688667Y-89866000D01*
X158722000Y-89899333D01*
X158755334Y-89966000D01*
X158755334Y-90099333D01*
X158722000Y-90166000D01*
X158688667Y-90199333D01*
X158622000Y-90232667D01*
X158488667Y-90232667D01*
X158422000Y-90199333D01*
X158388667Y-90166000D01*
X158355334Y-90099333D01*
X158355334Y-89966000D01*
X158388667Y-89899333D01*
X158422000Y-89866000D01*
X158488667Y-89832667D01*
X158122000Y-89532667D02*
X157688667Y-89532667D01*
X157922000Y-89799333D01*
X157822000Y-89799333D01*
X157755333Y-89832667D01*
X157722000Y-89866000D01*
X157688667Y-89932667D01*
X157688667Y-90099333D01*
X157722000Y-90166000D01*
X157755333Y-90199333D01*
X157822000Y-90232667D01*
X158022000Y-90232667D01*
X158088667Y-90199333D01*
X158122000Y-90166000D01*
X157255333Y-89532667D02*
X157188666Y-89532667D01*
X157122000Y-89566000D01*
X157088666Y-89599333D01*
X157055333Y-89666000D01*
X157022000Y-89799333D01*
X157022000Y-89966000D01*
X157055333Y-90099333D01*
X157088666Y-90166000D01*
X157122000Y-90199333D01*
X157188666Y-90232667D01*
X157255333Y-90232667D01*
X157322000Y-90199333D01*
X157355333Y-90166000D01*
X157388666Y-90099333D01*
X157422000Y-89966000D01*
X157422000Y-89799333D01*
X157388666Y-89666000D01*
X157355333Y-89599333D01*
X157322000Y-89566000D01*
X157255333Y-89532667D01*
X156588666Y-89532667D02*
X156521999Y-89532667D01*
X156455333Y-89566000D01*
X156421999Y-89599333D01*
X156388666Y-89666000D01*
X156355333Y-89799333D01*
X156355333Y-89966000D01*
X156388666Y-90099333D01*
X156421999Y-90166000D01*
X156455333Y-90199333D01*
X156521999Y-90232667D01*
X156588666Y-90232667D01*
X156655333Y-90199333D01*
X156688666Y-90166000D01*
X156721999Y-90099333D01*
X156755333Y-89966000D01*
X156755333Y-89799333D01*
X156721999Y-89666000D01*
X156688666Y-89599333D01*
X156655333Y-89566000D01*
X156588666Y-89532667D01*
X163188667Y-89016667D02*
X162855333Y-89016667D01*
X163255333Y-89216667D02*
X163022000Y-88516667D01*
X162788667Y-89216667D01*
X162155333Y-89150000D02*
X162188667Y-89183333D01*
X162288667Y-89216667D01*
X162355333Y-89216667D01*
X162455333Y-89183333D01*
X162522000Y-89116667D01*
X162555333Y-89050000D01*
X162588667Y-88916667D01*
X162588667Y-88816667D01*
X162555333Y-88683333D01*
X162522000Y-88616667D01*
X162455333Y-88550000D01*
X162355333Y-88516667D01*
X162288667Y-88516667D01*
X162188667Y-88550000D01*
X162155333Y-88583333D01*
X161855333Y-89216667D02*
X161855333Y-88516667D01*
X161555334Y-89016667D02*
X161222000Y-89016667D01*
X161622000Y-89216667D02*
X161388667Y-88516667D01*
X161155334Y-89216667D01*
X160555334Y-89216667D02*
X160955334Y-89216667D01*
X160755334Y-89216667D02*
X160755334Y-88516667D01*
X160822000Y-88616667D01*
X160888667Y-88683333D01*
X160955334Y-88716667D01*
X160255333Y-89150000D02*
X160222000Y-89183333D01*
X160255333Y-89216667D01*
X160288667Y-89183333D01*
X160255333Y-89150000D01*
X160255333Y-89216667D01*
X160255333Y-88783333D02*
X160222000Y-88816667D01*
X160255333Y-88850000D01*
X160288667Y-88816667D01*
X160255333Y-88783333D01*
X160255333Y-88850000D01*
X159422001Y-89183333D02*
X159322001Y-89216667D01*
X159155334Y-89216667D01*
X159088667Y-89183333D01*
X159055334Y-89150000D01*
X159022001Y-89083333D01*
X159022001Y-89016667D01*
X159055334Y-88950000D01*
X159088667Y-88916667D01*
X159155334Y-88883333D01*
X159288667Y-88850000D01*
X159355334Y-88816667D01*
X159388667Y-88783333D01*
X159422001Y-88716667D01*
X159422001Y-88650000D01*
X159388667Y-88583333D01*
X159355334Y-88550000D01*
X159288667Y-88516667D01*
X159122001Y-88516667D01*
X159022001Y-88550000D01*
X159222001Y-88416667D02*
X159222001Y-89316667D01*
X158622000Y-88816667D02*
X158688667Y-88783333D01*
X158722000Y-88750000D01*
X158755334Y-88683333D01*
X158755334Y-88650000D01*
X158722000Y-88583333D01*
X158688667Y-88550000D01*
X158622000Y-88516667D01*
X158488667Y-88516667D01*
X158422000Y-88550000D01*
X158388667Y-88583333D01*
X158355334Y-88650000D01*
X158355334Y-88683333D01*
X158388667Y-88750000D01*
X158422000Y-88783333D01*
X158488667Y-88816667D01*
X158622000Y-88816667D01*
X158688667Y-88850000D01*
X158722000Y-88883333D01*
X158755334Y-88950000D01*
X158755334Y-89083333D01*
X158722000Y-89150000D01*
X158688667Y-89183333D01*
X158622000Y-89216667D01*
X158488667Y-89216667D01*
X158422000Y-89183333D01*
X158388667Y-89150000D01*
X158355334Y-89083333D01*
X158355334Y-88950000D01*
X158388667Y-88883333D01*
X158422000Y-88850000D01*
X158488667Y-88816667D01*
X158088667Y-88583333D02*
X158055333Y-88550000D01*
X157988667Y-88516667D01*
X157822000Y-88516667D01*
X157755333Y-88550000D01*
X157722000Y-88583333D01*
X157688667Y-88650000D01*
X157688667Y-88716667D01*
X157722000Y-88816667D01*
X158122000Y-89216667D01*
X157688667Y-89216667D01*
X157255333Y-88516667D02*
X157188666Y-88516667D01*
X157122000Y-88550000D01*
X157088666Y-88583333D01*
X157055333Y-88650000D01*
X157022000Y-88783333D01*
X157022000Y-88950000D01*
X157055333Y-89083333D01*
X157088666Y-89150000D01*
X157122000Y-89183333D01*
X157188666Y-89216667D01*
X157255333Y-89216667D01*
X157322000Y-89183333D01*
X157355333Y-89150000D01*
X157388666Y-89083333D01*
X157422000Y-88950000D01*
X157422000Y-88783333D01*
X157388666Y-88650000D01*
X157355333Y-88583333D01*
X157322000Y-88550000D01*
X157255333Y-88516667D01*
X156588666Y-88516667D02*
X156521999Y-88516667D01*
X156455333Y-88550000D01*
X156421999Y-88583333D01*
X156388666Y-88650000D01*
X156355333Y-88783333D01*
X156355333Y-88950000D01*
X156388666Y-89083333D01*
X156421999Y-89150000D01*
X156455333Y-89183333D01*
X156521999Y-89216667D01*
X156588666Y-89216667D01*
X156655333Y-89183333D01*
X156688666Y-89150000D01*
X156721999Y-89083333D01*
X156755333Y-88950000D01*
X156755333Y-88783333D01*
X156721999Y-88650000D01*
X156688666Y-88583333D01*
X156655333Y-88550000D01*
X156588666Y-88516667D01*
X175955333Y-91564667D02*
X175722000Y-92264667D01*
X175488667Y-91564667D01*
X175255333Y-92264667D02*
X175255333Y-91564667D01*
X174955334Y-92064667D02*
X174622000Y-92064667D01*
X175022000Y-92264667D02*
X174788667Y-91564667D01*
X174555334Y-92264667D01*
X174355334Y-91631333D02*
X174322000Y-91598000D01*
X174255334Y-91564667D01*
X174088667Y-91564667D01*
X174022000Y-91598000D01*
X173988667Y-91631333D01*
X173955334Y-91698000D01*
X173955334Y-91764667D01*
X173988667Y-91864667D01*
X174388667Y-92264667D01*
X173955334Y-92264667D01*
X173655333Y-92198000D02*
X173622000Y-92231333D01*
X173655333Y-92264667D01*
X173688667Y-92231333D01*
X173655333Y-92198000D01*
X173655333Y-92264667D01*
X173655333Y-91831333D02*
X173622000Y-91864667D01*
X173655333Y-91898000D01*
X173688667Y-91864667D01*
X173655333Y-91831333D01*
X173655333Y-91898000D01*
X172822001Y-92231333D02*
X172722001Y-92264667D01*
X172555334Y-92264667D01*
X172488667Y-92231333D01*
X172455334Y-92198000D01*
X172422001Y-92131333D01*
X172422001Y-92064667D01*
X172455334Y-91998000D01*
X172488667Y-91964667D01*
X172555334Y-91931333D01*
X172688667Y-91898000D01*
X172755334Y-91864667D01*
X172788667Y-91831333D01*
X172822001Y-91764667D01*
X172822001Y-91698000D01*
X172788667Y-91631333D01*
X172755334Y-91598000D01*
X172688667Y-91564667D01*
X172522001Y-91564667D01*
X172422001Y-91598000D01*
X172622001Y-91464667D02*
X172622001Y-92364667D01*
X172022000Y-91864667D02*
X172088667Y-91831333D01*
X172122000Y-91798000D01*
X172155334Y-91731333D01*
X172155334Y-91698000D01*
X172122000Y-91631333D01*
X172088667Y-91598000D01*
X172022000Y-91564667D01*
X171888667Y-91564667D01*
X171822000Y-91598000D01*
X171788667Y-91631333D01*
X171755334Y-91698000D01*
X171755334Y-91731333D01*
X171788667Y-91798000D01*
X171822000Y-91831333D01*
X171888667Y-91864667D01*
X172022000Y-91864667D01*
X172088667Y-91898000D01*
X172122000Y-91931333D01*
X172155334Y-91998000D01*
X172155334Y-92131333D01*
X172122000Y-92198000D01*
X172088667Y-92231333D01*
X172022000Y-92264667D01*
X171888667Y-92264667D01*
X171822000Y-92231333D01*
X171788667Y-92198000D01*
X171755334Y-92131333D01*
X171755334Y-91998000D01*
X171788667Y-91931333D01*
X171822000Y-91898000D01*
X171888667Y-91864667D01*
X171088667Y-92264667D02*
X171488667Y-92264667D01*
X171288667Y-92264667D02*
X171288667Y-91564667D01*
X171355333Y-91664667D01*
X171422000Y-91731333D01*
X171488667Y-91764667D01*
X170655333Y-91564667D02*
X170588666Y-91564667D01*
X170522000Y-91598000D01*
X170488666Y-91631333D01*
X170455333Y-91698000D01*
X170422000Y-91831333D01*
X170422000Y-91998000D01*
X170455333Y-92131333D01*
X170488666Y-92198000D01*
X170522000Y-92231333D01*
X170588666Y-92264667D01*
X170655333Y-92264667D01*
X170722000Y-92231333D01*
X170755333Y-92198000D01*
X170788666Y-92131333D01*
X170822000Y-91998000D01*
X170822000Y-91831333D01*
X170788666Y-91698000D01*
X170755333Y-91631333D01*
X170722000Y-91598000D01*
X170655333Y-91564667D01*
X169988666Y-91564667D02*
X169921999Y-91564667D01*
X169855333Y-91598000D01*
X169821999Y-91631333D01*
X169788666Y-91698000D01*
X169755333Y-91831333D01*
X169755333Y-91998000D01*
X169788666Y-92131333D01*
X169821999Y-92198000D01*
X169855333Y-92231333D01*
X169921999Y-92264667D01*
X169988666Y-92264667D01*
X170055333Y-92231333D01*
X170088666Y-92198000D01*
X170121999Y-92131333D01*
X170155333Y-91998000D01*
X170155333Y-91831333D01*
X170121999Y-91698000D01*
X170088666Y-91631333D01*
X170055333Y-91598000D01*
X169988666Y-91564667D01*
X175955333Y-90548667D02*
X175722000Y-91248667D01*
X175488667Y-90548667D01*
X175255333Y-91248667D02*
X175255333Y-90548667D01*
X174955334Y-91048667D02*
X174622000Y-91048667D01*
X175022000Y-91248667D02*
X174788667Y-90548667D01*
X174555334Y-91248667D01*
X173955334Y-91248667D02*
X174355334Y-91248667D01*
X174155334Y-91248667D02*
X174155334Y-90548667D01*
X174222000Y-90648667D01*
X174288667Y-90715333D01*
X174355334Y-90748667D01*
X173655333Y-91182000D02*
X173622000Y-91215333D01*
X173655333Y-91248667D01*
X173688667Y-91215333D01*
X173655333Y-91182000D01*
X173655333Y-91248667D01*
X173655333Y-90815333D02*
X173622000Y-90848667D01*
X173655333Y-90882000D01*
X173688667Y-90848667D01*
X173655333Y-90815333D01*
X173655333Y-90882000D01*
X172822001Y-91215333D02*
X172722001Y-91248667D01*
X172555334Y-91248667D01*
X172488667Y-91215333D01*
X172455334Y-91182000D01*
X172422001Y-91115333D01*
X172422001Y-91048667D01*
X172455334Y-90982000D01*
X172488667Y-90948667D01*
X172555334Y-90915333D01*
X172688667Y-90882000D01*
X172755334Y-90848667D01*
X172788667Y-90815333D01*
X172822001Y-90748667D01*
X172822001Y-90682000D01*
X172788667Y-90615333D01*
X172755334Y-90582000D01*
X172688667Y-90548667D01*
X172522001Y-90548667D01*
X172422001Y-90582000D01*
X172622001Y-90448667D02*
X172622001Y-91348667D01*
X172022000Y-90848667D02*
X172088667Y-90815333D01*
X172122000Y-90782000D01*
X172155334Y-90715333D01*
X172155334Y-90682000D01*
X172122000Y-90615333D01*
X172088667Y-90582000D01*
X172022000Y-90548667D01*
X171888667Y-90548667D01*
X171822000Y-90582000D01*
X171788667Y-90615333D01*
X171755334Y-90682000D01*
X171755334Y-90715333D01*
X171788667Y-90782000D01*
X171822000Y-90815333D01*
X171888667Y-90848667D01*
X172022000Y-90848667D01*
X172088667Y-90882000D01*
X172122000Y-90915333D01*
X172155334Y-90982000D01*
X172155334Y-91115333D01*
X172122000Y-91182000D01*
X172088667Y-91215333D01*
X172022000Y-91248667D01*
X171888667Y-91248667D01*
X171822000Y-91215333D01*
X171788667Y-91182000D01*
X171755334Y-91115333D01*
X171755334Y-90982000D01*
X171788667Y-90915333D01*
X171822000Y-90882000D01*
X171888667Y-90848667D01*
X171322000Y-90548667D02*
X171255333Y-90548667D01*
X171188667Y-90582000D01*
X171155333Y-90615333D01*
X171122000Y-90682000D01*
X171088667Y-90815333D01*
X171088667Y-90982000D01*
X171122000Y-91115333D01*
X171155333Y-91182000D01*
X171188667Y-91215333D01*
X171255333Y-91248667D01*
X171322000Y-91248667D01*
X171388667Y-91215333D01*
X171422000Y-91182000D01*
X171455333Y-91115333D01*
X171488667Y-90982000D01*
X171488667Y-90815333D01*
X171455333Y-90682000D01*
X171422000Y-90615333D01*
X171388667Y-90582000D01*
X171322000Y-90548667D01*
X170655333Y-90548667D02*
X170588666Y-90548667D01*
X170522000Y-90582000D01*
X170488666Y-90615333D01*
X170455333Y-90682000D01*
X170422000Y-90815333D01*
X170422000Y-90982000D01*
X170455333Y-91115333D01*
X170488666Y-91182000D01*
X170522000Y-91215333D01*
X170588666Y-91248667D01*
X170655333Y-91248667D01*
X170722000Y-91215333D01*
X170755333Y-91182000D01*
X170788666Y-91115333D01*
X170822000Y-90982000D01*
X170822000Y-90815333D01*
X170788666Y-90682000D01*
X170755333Y-90615333D01*
X170722000Y-90582000D01*
X170655333Y-90548667D01*
X169988666Y-90548667D02*
X169921999Y-90548667D01*
X169855333Y-90582000D01*
X169821999Y-90615333D01*
X169788666Y-90682000D01*
X169755333Y-90815333D01*
X169755333Y-90982000D01*
X169788666Y-91115333D01*
X169821999Y-91182000D01*
X169855333Y-91215333D01*
X169921999Y-91248667D01*
X169988666Y-91248667D01*
X170055333Y-91215333D01*
X170088666Y-91182000D01*
X170121999Y-91115333D01*
X170155333Y-90982000D01*
X170155333Y-90815333D01*
X170121999Y-90682000D01*
X170088666Y-90615333D01*
X170055333Y-90582000D01*
X169988666Y-90548667D01*
X175455333Y-90232667D02*
X175688667Y-89899333D01*
X175855333Y-90232667D02*
X175855333Y-89532667D01*
X175588667Y-89532667D01*
X175522000Y-89566000D01*
X175488667Y-89599333D01*
X175455333Y-89666000D01*
X175455333Y-89766000D01*
X175488667Y-89832667D01*
X175522000Y-89866000D01*
X175588667Y-89899333D01*
X175855333Y-89899333D01*
X175022000Y-89532667D02*
X174888667Y-89532667D01*
X174822000Y-89566000D01*
X174755333Y-89632667D01*
X174722000Y-89766000D01*
X174722000Y-89999333D01*
X174755333Y-90132667D01*
X174822000Y-90199333D01*
X174888667Y-90232667D01*
X175022000Y-90232667D01*
X175088667Y-90199333D01*
X175155333Y-90132667D01*
X175188667Y-89999333D01*
X175188667Y-89766000D01*
X175155333Y-89632667D01*
X175088667Y-89566000D01*
X175022000Y-89532667D01*
X174422000Y-90232667D02*
X174422000Y-89532667D01*
X174188667Y-90032667D01*
X173955334Y-89532667D01*
X173955334Y-90232667D01*
X173622000Y-90166000D02*
X173588667Y-90199333D01*
X173622000Y-90232667D01*
X173655334Y-90199333D01*
X173622000Y-90166000D01*
X173622000Y-90232667D01*
X173622000Y-89799333D02*
X173588667Y-89832667D01*
X173622000Y-89866000D01*
X173655334Y-89832667D01*
X173622000Y-89799333D01*
X173622000Y-89866000D01*
X172788668Y-90199333D02*
X172688668Y-90232667D01*
X172522001Y-90232667D01*
X172455334Y-90199333D01*
X172422001Y-90166000D01*
X172388668Y-90099333D01*
X172388668Y-90032667D01*
X172422001Y-89966000D01*
X172455334Y-89932667D01*
X172522001Y-89899333D01*
X172655334Y-89866000D01*
X172722001Y-89832667D01*
X172755334Y-89799333D01*
X172788668Y-89732667D01*
X172788668Y-89666000D01*
X172755334Y-89599333D01*
X172722001Y-89566000D01*
X172655334Y-89532667D01*
X172488668Y-89532667D01*
X172388668Y-89566000D01*
X172588668Y-89432667D02*
X172588668Y-90332667D01*
X171688667Y-90166000D02*
X171722001Y-90199333D01*
X171822001Y-90232667D01*
X171888667Y-90232667D01*
X171988667Y-90199333D01*
X172055334Y-90132667D01*
X172088667Y-90066000D01*
X172122001Y-89932667D01*
X172122001Y-89832667D01*
X172088667Y-89699333D01*
X172055334Y-89632667D01*
X171988667Y-89566000D01*
X171888667Y-89532667D01*
X171822001Y-89532667D01*
X171722001Y-89566000D01*
X171688667Y-89599333D01*
X171255334Y-89532667D02*
X171188667Y-89532667D01*
X171122001Y-89566000D01*
X171088667Y-89599333D01*
X171055334Y-89666000D01*
X171022001Y-89799333D01*
X171022001Y-89966000D01*
X171055334Y-90099333D01*
X171088667Y-90166000D01*
X171122001Y-90199333D01*
X171188667Y-90232667D01*
X171255334Y-90232667D01*
X171322001Y-90199333D01*
X171355334Y-90166000D01*
X171388667Y-90099333D01*
X171422001Y-89966000D01*
X171422001Y-89799333D01*
X171388667Y-89666000D01*
X171355334Y-89599333D01*
X171322001Y-89566000D01*
X171255334Y-89532667D01*
X170588667Y-89532667D02*
X170522000Y-89532667D01*
X170455334Y-89566000D01*
X170422000Y-89599333D01*
X170388667Y-89666000D01*
X170355334Y-89799333D01*
X170355334Y-89966000D01*
X170388667Y-90099333D01*
X170422000Y-90166000D01*
X170455334Y-90199333D01*
X170522000Y-90232667D01*
X170588667Y-90232667D01*
X170655334Y-90199333D01*
X170688667Y-90166000D01*
X170722000Y-90099333D01*
X170755334Y-89966000D01*
X170755334Y-89799333D01*
X170722000Y-89666000D01*
X170688667Y-89599333D01*
X170655334Y-89566000D01*
X170588667Y-89532667D01*
X169922000Y-89532667D02*
X169855333Y-89532667D01*
X169788667Y-89566000D01*
X169755333Y-89599333D01*
X169722000Y-89666000D01*
X169688667Y-89799333D01*
X169688667Y-89966000D01*
X169722000Y-90099333D01*
X169755333Y-90166000D01*
X169788667Y-90199333D01*
X169855333Y-90232667D01*
X169922000Y-90232667D01*
X169988667Y-90199333D01*
X170022000Y-90166000D01*
X170055333Y-90099333D01*
X170088667Y-89966000D01*
X170088667Y-89799333D01*
X170055333Y-89666000D01*
X170022000Y-89599333D01*
X169988667Y-89566000D01*
X169922000Y-89532667D01*
X168855333Y-89966000D02*
X168322000Y-89966000D01*
X167488667Y-90199333D02*
X167388667Y-90232667D01*
X167222000Y-90232667D01*
X167155333Y-90199333D01*
X167122000Y-90166000D01*
X167088667Y-90099333D01*
X167088667Y-90032667D01*
X167122000Y-89966000D01*
X167155333Y-89932667D01*
X167222000Y-89899333D01*
X167355333Y-89866000D01*
X167422000Y-89832667D01*
X167455333Y-89799333D01*
X167488667Y-89732667D01*
X167488667Y-89666000D01*
X167455333Y-89599333D01*
X167422000Y-89566000D01*
X167355333Y-89532667D01*
X167188667Y-89532667D01*
X167088667Y-89566000D01*
X167288667Y-89432667D02*
X167288667Y-90332667D01*
X166555333Y-89866000D02*
X166788666Y-89866000D01*
X166788666Y-90232667D02*
X166788666Y-89532667D01*
X166455333Y-89532667D01*
X165955333Y-89866000D02*
X166188666Y-89866000D01*
X166188666Y-90232667D02*
X166188666Y-89532667D01*
X165855333Y-89532667D01*
X165355333Y-89866000D02*
X165588666Y-89866000D01*
X165588666Y-90232667D02*
X165588666Y-89532667D01*
X165255333Y-89532667D01*
X164755333Y-89866000D02*
X164988666Y-89866000D01*
X164988666Y-90232667D02*
X164988666Y-89532667D01*
X164655333Y-89532667D01*
X175455333Y-89216667D02*
X175688667Y-88883333D01*
X175855333Y-89216667D02*
X175855333Y-88516667D01*
X175588667Y-88516667D01*
X175522000Y-88550000D01*
X175488667Y-88583333D01*
X175455333Y-88650000D01*
X175455333Y-88750000D01*
X175488667Y-88816667D01*
X175522000Y-88850000D01*
X175588667Y-88883333D01*
X175855333Y-88883333D01*
X175188667Y-89016667D02*
X174855333Y-89016667D01*
X175255333Y-89216667D02*
X175022000Y-88516667D01*
X174788667Y-89216667D01*
X174555333Y-89216667D02*
X174555333Y-88516667D01*
X174322000Y-89016667D01*
X174088667Y-88516667D01*
X174088667Y-89216667D01*
X173755333Y-89150000D02*
X173722000Y-89183333D01*
X173755333Y-89216667D01*
X173788667Y-89183333D01*
X173755333Y-89150000D01*
X173755333Y-89216667D01*
X173755333Y-88783333D02*
X173722000Y-88816667D01*
X173755333Y-88850000D01*
X173788667Y-88816667D01*
X173755333Y-88783333D01*
X173755333Y-88850000D01*
X172922001Y-89183333D02*
X172822001Y-89216667D01*
X172655334Y-89216667D01*
X172588667Y-89183333D01*
X172555334Y-89150000D01*
X172522001Y-89083333D01*
X172522001Y-89016667D01*
X172555334Y-88950000D01*
X172588667Y-88916667D01*
X172655334Y-88883333D01*
X172788667Y-88850000D01*
X172855334Y-88816667D01*
X172888667Y-88783333D01*
X172922001Y-88716667D01*
X172922001Y-88650000D01*
X172888667Y-88583333D01*
X172855334Y-88550000D01*
X172788667Y-88516667D01*
X172622001Y-88516667D01*
X172522001Y-88550000D01*
X172722001Y-88416667D02*
X172722001Y-89316667D01*
X172088667Y-88516667D02*
X172022000Y-88516667D01*
X171955334Y-88550000D01*
X171922000Y-88583333D01*
X171888667Y-88650000D01*
X171855334Y-88783333D01*
X171855334Y-88950000D01*
X171888667Y-89083333D01*
X171922000Y-89150000D01*
X171955334Y-89183333D01*
X172022000Y-89216667D01*
X172088667Y-89216667D01*
X172155334Y-89183333D01*
X172188667Y-89150000D01*
X172222000Y-89083333D01*
X172255334Y-88950000D01*
X172255334Y-88783333D01*
X172222000Y-88650000D01*
X172188667Y-88583333D01*
X172155334Y-88550000D01*
X172088667Y-88516667D01*
X171422000Y-88516667D02*
X171355333Y-88516667D01*
X171288667Y-88550000D01*
X171255333Y-88583333D01*
X171222000Y-88650000D01*
X171188667Y-88783333D01*
X171188667Y-88950000D01*
X171222000Y-89083333D01*
X171255333Y-89150000D01*
X171288667Y-89183333D01*
X171355333Y-89216667D01*
X171422000Y-89216667D01*
X171488667Y-89183333D01*
X171522000Y-89150000D01*
X171555333Y-89083333D01*
X171588667Y-88950000D01*
X171588667Y-88783333D01*
X171555333Y-88650000D01*
X171522000Y-88583333D01*
X171488667Y-88550000D01*
X171422000Y-88516667D01*
X170755333Y-88516667D02*
X170688666Y-88516667D01*
X170622000Y-88550000D01*
X170588666Y-88583333D01*
X170555333Y-88650000D01*
X170522000Y-88783333D01*
X170522000Y-88950000D01*
X170555333Y-89083333D01*
X170588666Y-89150000D01*
X170622000Y-89183333D01*
X170688666Y-89216667D01*
X170755333Y-89216667D01*
X170822000Y-89183333D01*
X170855333Y-89150000D01*
X170888666Y-89083333D01*
X170922000Y-88950000D01*
X170922000Y-88783333D01*
X170888666Y-88650000D01*
X170855333Y-88583333D01*
X170822000Y-88550000D01*
X170755333Y-88516667D01*
X170088666Y-88516667D02*
X170021999Y-88516667D01*
X169955333Y-88550000D01*
X169921999Y-88583333D01*
X169888666Y-88650000D01*
X169855333Y-88783333D01*
X169855333Y-88950000D01*
X169888666Y-89083333D01*
X169921999Y-89150000D01*
X169955333Y-89183333D01*
X170021999Y-89216667D01*
X170088666Y-89216667D01*
X170155333Y-89183333D01*
X170188666Y-89150000D01*
X170221999Y-89083333D01*
X170255333Y-88950000D01*
X170255333Y-88783333D01*
X170221999Y-88650000D01*
X170188666Y-88583333D01*
X170155333Y-88550000D01*
X170088666Y-88516667D01*
X169021999Y-88950000D02*
X168488666Y-88950000D01*
X167655333Y-89183333D02*
X167555333Y-89216667D01*
X167388666Y-89216667D01*
X167321999Y-89183333D01*
X167288666Y-89150000D01*
X167255333Y-89083333D01*
X167255333Y-89016667D01*
X167288666Y-88950000D01*
X167321999Y-88916667D01*
X167388666Y-88883333D01*
X167521999Y-88850000D01*
X167588666Y-88816667D01*
X167621999Y-88783333D01*
X167655333Y-88716667D01*
X167655333Y-88650000D01*
X167621999Y-88583333D01*
X167588666Y-88550000D01*
X167521999Y-88516667D01*
X167355333Y-88516667D01*
X167255333Y-88550000D01*
X167455333Y-88416667D02*
X167455333Y-89316667D01*
X167021999Y-88516667D02*
X166555332Y-88516667D01*
X166855332Y-89216667D01*
X166055332Y-88850000D02*
X166288665Y-88850000D01*
X166288665Y-89216667D02*
X166288665Y-88516667D01*
X165955332Y-88516667D01*
X165455332Y-88850000D02*
X165688665Y-88850000D01*
X165688665Y-89216667D02*
X165688665Y-88516667D01*
X165355332Y-88516667D01*
X164855332Y-88850000D02*
X165088665Y-88850000D01*
X165088665Y-89216667D02*
X165088665Y-88516667D01*
X164755332Y-88516667D01*
%LPC*%
D11*
X130399000Y-97937000D03*
D12*
X132939000Y-97937000D03*
X135479000Y-97937000D03*
X138019000Y-97937000D03*
X140559000Y-97937000D03*
X143099000Y-97937000D03*
X145639000Y-97937000D03*
X148179000Y-97937000D03*
X158339000Y-97937000D03*
X160879000Y-97937000D03*
X163419000Y-97937000D03*
X165959000Y-97937000D03*
X168499000Y-97937000D03*
X171039000Y-97937000D03*
X173579000Y-97937000D03*
X176119000Y-97937000D03*
X178659000Y-97937000D03*
X178659000Y-82697000D03*
X176119000Y-82697000D03*
X173579000Y-82697000D03*
X171039000Y-82697000D03*
X168499000Y-82697000D03*
X165959000Y-82697000D03*
X163419000Y-82697000D03*
X160879000Y-82697000D03*
X158339000Y-82697000D03*
X148179000Y-82697000D03*
X145639000Y-82697000D03*
X143099000Y-82697000D03*
X140559000Y-82697000D03*
X138019000Y-82697000D03*
X135479000Y-82697000D03*
X132939000Y-82697000D03*
X130399000Y-82697000D03*
D13*
X150266400Y-86512400D03*
D14*
X147726400Y-86512400D03*
X145186400Y-86512400D03*
X142646400Y-86512400D03*
X140106400Y-86512400D03*
X137566400Y-86512400D03*
X135026400Y-86512400D03*
X132486400Y-86512400D03*
X132486400Y-94132400D03*
X135026400Y-94132400D03*
X137566400Y-94132400D03*
X140106400Y-94132400D03*
X142646400Y-94132400D03*
X145186400Y-94132400D03*
X147726400Y-94132400D03*
X150266400Y-94132400D03*
D13*
X173863000Y-86487000D03*
D14*
X171323000Y-86487000D03*
X168783000Y-86487000D03*
X166243000Y-86487000D03*
X163703000Y-86487000D03*
X161163000Y-86487000D03*
X158623000Y-86487000D03*
X158623000Y-94107000D03*
X161163000Y-94107000D03*
X163703000Y-94107000D03*
X166243000Y-94107000D03*
X168783000Y-94107000D03*
X171323000Y-94107000D03*
X173863000Y-94107000D03*
D15*
X177927000Y-94107000D03*
D16*
X177927000Y-91607000D03*
D15*
X154305000Y-94107000D03*
D16*
X154305000Y-91607000D03*
M02*
