G04 #@! TF.FileFunction,Copper,L1,Top,Signal*
%FSLAX46Y46*%
G04 Gerber Fmt 4.6, Leading zero omitted, Abs format (unit mm)*
G04 Created by KiCad (PCBNEW 4.0.2-stable) date 5/20/2016 6:39:27 AM*
%MOMM*%
G01*
G04 APERTURE LIST*
%ADD10C,0.100000*%
%ADD11R,1.700000X1.700000*%
%ADD12C,1.600000*%
%ADD13R,1.501140X2.199640*%
%ADD14O,1.501140X2.199640*%
%ADD15R,1.300000X1.300000*%
%ADD16C,1.300000*%
%ADD17C,0.600000*%
%ADD18C,0.762000*%
%ADD19C,0.254000*%
%ADD20C,0.635000*%
G04 APERTURE END LIST*
D10*
D11*
X130399000Y-97937000D03*
D12*
X132939000Y-97937000D03*
X135479000Y-97937000D03*
X138019000Y-97937000D03*
X140559000Y-97937000D03*
X143099000Y-97937000D03*
X145639000Y-97937000D03*
X148179000Y-97937000D03*
X158339000Y-97937000D03*
X160879000Y-97937000D03*
X163419000Y-97937000D03*
X165959000Y-97937000D03*
X168499000Y-97937000D03*
X171039000Y-97937000D03*
X173579000Y-97937000D03*
X176119000Y-97937000D03*
X178659000Y-97937000D03*
X178659000Y-82697000D03*
X176119000Y-82697000D03*
X173579000Y-82697000D03*
X171039000Y-82697000D03*
X168499000Y-82697000D03*
X165959000Y-82697000D03*
X163419000Y-82697000D03*
X160879000Y-82697000D03*
X158339000Y-82697000D03*
X148179000Y-82697000D03*
X145639000Y-82697000D03*
X143099000Y-82697000D03*
X140559000Y-82697000D03*
X138019000Y-82697000D03*
X135479000Y-82697000D03*
X132939000Y-82697000D03*
X130399000Y-82697000D03*
D13*
X150266400Y-86512400D03*
D14*
X147726400Y-86512400D03*
X145186400Y-86512400D03*
X142646400Y-86512400D03*
X140106400Y-86512400D03*
X137566400Y-86512400D03*
X135026400Y-86512400D03*
X132486400Y-86512400D03*
X132486400Y-94132400D03*
X135026400Y-94132400D03*
X137566400Y-94132400D03*
X140106400Y-94132400D03*
X142646400Y-94132400D03*
X145186400Y-94132400D03*
X147726400Y-94132400D03*
X150266400Y-94132400D03*
D13*
X173863000Y-86487000D03*
D14*
X171323000Y-86487000D03*
X168783000Y-86487000D03*
X166243000Y-86487000D03*
X163703000Y-86487000D03*
X161163000Y-86487000D03*
X158623000Y-86487000D03*
X158623000Y-94107000D03*
X161163000Y-94107000D03*
X163703000Y-94107000D03*
X166243000Y-94107000D03*
X168783000Y-94107000D03*
X171323000Y-94107000D03*
X173863000Y-94107000D03*
D15*
X177927000Y-94107000D03*
D16*
X177927000Y-91607000D03*
D15*
X154305000Y-94107000D03*
D16*
X154305000Y-91607000D03*
D17*
X155829000Y-95250000D03*
D18*
X150241000Y-94107000D02*
X154305000Y-94107000D01*
X149860000Y-95885000D02*
X150241000Y-95504000D01*
X150241000Y-95504000D02*
X150241000Y-94107000D01*
X131699000Y-95885000D02*
X149860000Y-95885000D01*
X130399000Y-97185000D02*
X131699000Y-95885000D01*
X130399000Y-97937000D02*
X130399000Y-97185000D01*
X174331000Y-91607000D02*
X173863000Y-92075000D01*
X173863000Y-92075000D02*
X173863000Y-94107000D01*
X177927000Y-91607000D02*
X174331000Y-91607000D01*
X177927000Y-89916000D02*
X177927000Y-91607000D01*
X178659000Y-89184000D02*
X177927000Y-89916000D01*
X178659000Y-82697000D02*
X178659000Y-89184000D01*
D19*
X173228000Y-96647000D02*
X173579000Y-96998000D01*
X173579000Y-96998000D02*
X173579000Y-97937000D01*
X158115000Y-96647000D02*
X173228000Y-96647000D01*
X156337000Y-94869000D02*
X158115000Y-96647000D01*
X156337000Y-91059000D02*
X156337000Y-94869000D01*
X154432000Y-89154000D02*
X156337000Y-91059000D01*
X147066000Y-89154000D02*
X154432000Y-89154000D01*
X145161000Y-87249000D02*
X147066000Y-89154000D01*
X145161000Y-86487000D02*
X145161000Y-87249000D01*
X170239001Y-83496999D02*
X171039000Y-82697000D01*
X168900000Y-84836000D02*
X170239001Y-83496999D01*
X167544000Y-84836000D02*
X168900000Y-84836000D01*
X166243000Y-86137000D02*
X167544000Y-84836000D01*
X166243000Y-86487000D02*
X166243000Y-86137000D01*
D20*
X165959000Y-82697000D02*
X168499000Y-82697000D01*
D19*
X165989000Y-84328000D02*
X165989000Y-82727000D01*
X165989000Y-82727000D02*
X165959000Y-82697000D01*
X168499000Y-82697000D02*
X168499000Y-83917000D01*
X163703000Y-84836000D02*
X163703000Y-86487000D01*
X164211000Y-84328000D02*
X163703000Y-84836000D01*
X168088000Y-84328000D02*
X165989000Y-84328000D01*
X165989000Y-84328000D02*
X164211000Y-84328000D01*
X168499000Y-83917000D02*
X168088000Y-84328000D01*
X163703000Y-86487000D02*
X163703000Y-85598000D01*
X161163000Y-94107000D02*
X161163000Y-95123000D01*
X171323000Y-87891000D02*
X171323000Y-86487000D01*
X171323000Y-91694000D02*
X171323000Y-87891000D01*
X170053000Y-92964000D02*
X171323000Y-91694000D01*
X169418000Y-95885000D02*
X170053000Y-95250000D01*
X165869068Y-95885000D02*
X169418000Y-95885000D01*
X170053000Y-95250000D02*
X170053000Y-92964000D01*
X165669057Y-96085011D02*
X165869068Y-95885000D01*
X161163000Y-95511000D02*
X161737011Y-96085011D01*
X161737011Y-96085011D02*
X165669057Y-96085011D01*
X161163000Y-94107000D02*
X161163000Y-95511000D01*
D20*
X171323000Y-86487000D02*
X173863000Y-86487000D01*
D19*
X148179000Y-97937000D02*
X153142000Y-97937000D01*
X153142000Y-97937000D02*
X155829000Y-95250000D01*
X163703000Y-94107000D02*
X163703000Y-93091000D01*
X163703000Y-93091000D02*
X164338000Y-92456000D01*
X167132000Y-92456000D02*
X168783000Y-94107000D01*
X164338000Y-92456000D02*
X167132000Y-92456000D01*
X163703000Y-94107000D02*
X163703000Y-95123000D01*
X168783000Y-95250000D02*
X168783000Y-94107000D01*
X158339000Y-82697000D02*
X158222000Y-82697000D01*
X158222000Y-82697000D02*
X157099000Y-83820000D01*
X157099000Y-83820000D02*
X157099000Y-92583000D01*
X157099000Y-92583000D02*
X158623000Y-94107000D01*
X148179000Y-83469000D02*
X146812000Y-84836000D01*
X146812000Y-84836000D02*
X144272000Y-84836000D01*
X144272000Y-84836000D02*
X143764000Y-85344000D01*
X143764000Y-85344000D02*
X143764000Y-90424000D01*
X143764000Y-90424000D02*
X142621000Y-91567000D01*
X142621000Y-91567000D02*
X142621000Y-94107000D01*
X148179000Y-82697000D02*
X148179000Y-83469000D01*
X145639000Y-82697000D02*
X145639000Y-83723000D01*
X140081000Y-90932000D02*
X140081000Y-94107000D01*
X141224000Y-89789000D02*
X140081000Y-90932000D01*
X141224000Y-85217000D02*
X141224000Y-89789000D01*
X142113000Y-84328000D02*
X141224000Y-85217000D01*
X145034000Y-84328000D02*
X142113000Y-84328000D01*
X145639000Y-83723000D02*
X145034000Y-84328000D01*
X138019000Y-82697000D02*
X138019000Y-84298000D01*
X137541000Y-91440000D02*
X137541000Y-94107000D01*
X138811000Y-90170000D02*
X137541000Y-91440000D01*
X138811000Y-85090000D02*
X138811000Y-90170000D01*
X138019000Y-84298000D02*
X138811000Y-85090000D01*
X135479000Y-82697000D02*
X135479000Y-84171000D01*
X135001000Y-91821000D02*
X135001000Y-94107000D01*
X136271000Y-90551000D02*
X135001000Y-91821000D01*
X136271000Y-84963000D02*
X136271000Y-90551000D01*
X135479000Y-84171000D02*
X136271000Y-84963000D01*
X130399000Y-82697000D02*
X130399000Y-83790000D01*
X134366000Y-84709000D02*
X135001000Y-85344000D01*
X131318000Y-84709000D02*
X134366000Y-84709000D01*
X130399000Y-83790000D02*
X131318000Y-84709000D01*
X135001000Y-85344000D02*
X135001000Y-86487000D01*
X135001000Y-86487000D02*
X135001000Y-85979000D01*
X162941000Y-95631000D02*
X165069000Y-95631000D01*
X165069000Y-95631000D02*
X166243000Y-94457000D01*
X166243000Y-94457000D02*
X166243000Y-94107000D01*
X162433000Y-95123000D02*
X162941000Y-95631000D01*
X162433000Y-92837000D02*
X162433000Y-95123000D01*
X160020000Y-90424000D02*
X162433000Y-92837000D01*
X160020000Y-84687370D02*
X160020000Y-90424000D01*
X160879000Y-82697000D02*
X160879000Y-83828370D01*
X160879000Y-83828370D02*
X160020000Y-84687370D01*
X161417000Y-84455000D02*
X161163000Y-84709000D01*
X161163000Y-84709000D02*
X161163000Y-86487000D01*
X162560000Y-84455000D02*
X161417000Y-84455000D01*
X163419000Y-83596000D02*
X162560000Y-84455000D01*
X163419000Y-82697000D02*
X163419000Y-83596000D01*
X174752000Y-84709000D02*
X170211000Y-84709000D01*
X170211000Y-84709000D02*
X168783000Y-86137000D01*
X168783000Y-86137000D02*
X168783000Y-86487000D01*
X175641000Y-85598000D02*
X174752000Y-84709000D01*
X175641000Y-88519000D02*
X175641000Y-85598000D01*
X171323000Y-92837000D02*
X175641000Y-88519000D01*
X171323000Y-94107000D02*
X171323000Y-92837000D01*
M02*
